# Blender 5.2.0 LTS
# www.blender.org
mtllib Head.mtl
o Head.003
v 0.000000 3.897405 -0.264213
v -0.051778 3.897466 -0.259113
v -0.101565 3.897648 -0.244013
v -0.147450 3.897943 -0.219487
v -0.187668 3.898341 -0.186484
v -0.220674 3.898825 -0.146269
v -0.245200 3.899378 -0.100387
v -0.260303 3.899977 -0.050603
v -0.265403 3.900601 0.001171
v -0.260303 3.901224 0.052944
v -0.245201 3.901824 0.102728
v -0.220674 3.902376 0.148609
v -0.187668 3.902861 0.188825
v -0.147450 3.903258 0.221829
v -0.101565 3.903553 0.246353
v -0.051777 3.903735 0.261454
v 0.000000 3.903797 0.266554
v 0.051777 3.903735 0.261454
v 0.101565 3.903553 0.246353
v 0.147450 3.903258 0.221829
v 0.187668 3.902861 0.188824
v 0.220674 3.902376 0.148609
v 0.245200 3.901824 0.102728
v 0.260303 3.901224 0.052944
v 0.265402 3.900601 0.001171
v 0.260303 3.899977 -0.050603
v 0.245200 3.899378 -0.100388
v 0.220674 3.898825 -0.146269
v 0.187667 3.898341 -0.186484
v 0.147449 3.897943 -0.219487
v 0.101565 3.897648 -0.244013
v 0.051777 3.897466 -0.259113
v 0.000000 3.949969 -0.431018
v -0.084194 3.950069 -0.422727
v -0.165152 3.950364 -0.398170
v -0.239764 3.950845 -0.358292
v -0.305161 3.951491 -0.304625
v -0.358831 3.952279 -0.239233
v -0.398712 3.953177 -0.164626
v -0.423271 3.954151 -0.083674
v -0.431563 3.955166 0.000514
v -0.431563 3.955166 0.000514
v -0.423271 3.956180 0.084701
v -0.423271 3.956180 0.084701
v -0.398712 3.957155 0.165654
v -0.398712 3.957155 0.165654
v -0.358832 3.958053 0.240259
v -0.305161 3.958841 0.305653
v -0.239764 3.959486 0.359319
v -0.165152 3.959967 0.399197
v -0.084194 3.960263 0.423753
v 0.000000 3.960363 0.432045
v 0.084194 3.960262 0.423753
v 0.165152 3.959967 0.399197
v 0.239764 3.959486 0.359319
v 0.305161 3.958841 0.305653
v 0.358831 3.958052 0.240259
v 0.398713 3.957155 0.165654
v 0.398713 3.957155 0.165654
v 0.423271 3.956180 0.084701
v 0.423271 3.956180 0.084701
v 0.431563 3.955166 0.000513
v 0.431563 3.955166 0.000513
v 0.423270 3.954152 -0.083674
v 0.398712 3.953176 -0.164627
v 0.358831 3.952279 -0.239233
v 0.305161 3.951491 -0.304626
v 0.239763 3.950844 -0.358292
v 0.165151 3.950364 -0.398170
v 0.084193 3.950069 -0.422727
v 0.000000 4.058103 -0.543457
v -0.105874 4.058230 -0.533031
v -0.207680 4.058601 -0.502151
v -0.301504 4.059205 -0.452004
v -0.383741 4.060017 -0.384518
v -0.451232 4.061007 -0.302287
v -0.501382 4.062137 -0.208470
v -0.532265 4.063364 -0.106671
v -0.542692 4.064638 -0.000805
v -0.542692 4.064638 -0.000805
v -0.532264 4.065913 0.105062
v -0.501382 4.067139 0.206859
v 0.501383 4.067140 0.206859
v 0.532264 4.065913 0.105061
v 0.542692 4.064639 -0.000806
v 0.542692 4.064639 -0.000806
v 0.532264 4.063363 -0.106672
v 0.501382 4.062138 -0.208470
v 0.451231 4.061007 -0.302287
v 0.383741 4.060018 -0.384519
v 0.301503 4.059206 -0.452005
v 0.207678 4.058600 -0.502150
v 0.105873 4.058230 -0.533031
v 0.000000 4.192916 -0.586113
v -0.113879 4.193051 -0.574898
v -0.223381 4.193451 -0.541683
v -0.324298 4.194101 -0.487746
v -0.412753 4.194975 -0.415157
v -0.485347 4.196040 -0.326709
v -0.539288 4.197256 -0.225798
v -0.572505 4.198574 -0.116304
v -0.583721 4.199945 -0.002434
v -0.583721 4.199945 -0.002434
v -0.572505 4.201317 0.111436
v -0.539288 4.202635 0.220930
v 0.539288 4.202635 0.220930
v 0.572505 4.201317 0.111436
v 0.583721 4.199945 -0.002435
v 0.583721 4.199945 -0.002435
v 0.572505 4.198574 -0.116305
v 0.539288 4.197256 -0.225799
v 0.485346 4.196040 -0.326710
v 0.412753 4.194975 -0.415158
v 0.324297 4.194101 -0.487746
v 0.223379 4.193451 -0.541684
v 0.113877 4.193051 -0.574898
v 0.000000 5.176565 -0.279617
v -0.051778 5.176626 -0.274518
v -0.101565 5.176808 -0.259416
v -0.147450 5.177103 -0.234892
v -0.187668 5.177501 -0.201888
v -0.220674 5.177985 -0.161673
v -0.245200 5.178537 -0.115791
v -0.260303 5.179137 -0.066008
v -0.265403 5.179760 -0.014234
v -0.260303 5.180384 0.037540
v -0.245200 5.180984 0.087324
v -0.220674 5.181536 0.133205
v -0.187668 5.182020 0.173421
v -0.147450 5.182418 0.206424
v -0.101565 5.182713 0.230949
v -0.051777 5.182895 0.246050
v 0.000000 5.182956 0.251150
v 0.051777 5.182895 0.246050
v 0.101565 5.182713 0.230949
v 0.147450 5.182418 0.206424
v 0.187668 5.182020 0.173421
v 0.220674 5.181536 0.133205
v 0.245200 5.180984 0.087324
v 0.260303 5.180384 0.037540
v 0.265402 5.179760 -0.014234
v 0.260303 5.179137 -0.066008
v 0.245200 5.178537 -0.115792
v 0.220674 5.177985 -0.161673
v 0.187668 5.177501 -0.201889
v 0.147449 5.177103 -0.234892
v 0.101565 5.176808 -0.259416
v 0.051777 5.176626 -0.274518
v 0.000000 5.120000 -0.445108
v -0.084194 5.120100 -0.436817
v -0.165152 5.120395 -0.412260
v -0.239764 5.120875 -0.372383
v -0.305161 5.121522 -0.318716
v -0.358831 5.122309 -0.253323
v -0.398712 5.123208 -0.178717
v -0.423271 5.124183 -0.097764
v -0.431563 5.125196 -0.013577
v -0.431563 5.125196 -0.013577
v -0.423271 5.126210 0.070610
v -0.423271 5.126210 0.070610
v -0.398712 5.127185 0.151563
v -0.398712 5.127185 0.151563
v -0.358832 5.128084 0.226169
v -0.305161 5.128871 0.291562
v -0.239764 5.129518 0.345228
v -0.165152 5.129998 0.385107
v -0.084194 5.130293 0.409663
v 0.000000 5.130393 0.417955
v 0.084194 5.130293 0.409663
v 0.165152 5.129998 0.385107
v 0.239764 5.129518 0.345228
v 0.305161 5.128871 0.291562
v 0.358831 5.128084 0.226169
v 0.398713 5.127185 0.151563
v 0.398713 5.127185 0.151563
v 0.423271 5.126210 0.070610
v 0.423271 5.126210 0.070610
v 0.431563 5.125196 -0.013578
v 0.431563 5.125196 -0.013578
v 0.423270 5.124183 -0.097764
v 0.398712 5.123208 -0.178718
v 0.358831 5.122309 -0.253323
v 0.305161 5.121522 -0.318717
v 0.239763 5.120875 -0.372383
v 0.165151 5.120395 -0.412260
v 0.084193 5.120100 -0.436817
v 0.000000 5.009188 -0.554911
v -0.105874 5.009314 -0.544485
v -0.207680 5.009685 -0.513605
v -0.301504 5.010290 -0.463458
v -0.383741 5.011102 -0.395971
v -0.451232 5.012093 -0.313740
v -0.501382 5.013222 -0.219923
v -0.532265 5.014447 -0.118125
v -0.542692 5.015723 -0.012258
v -0.542692 5.015723 -0.012258
v -0.532264 5.016998 0.093608
v -0.501382 5.018224 0.195406
v 0.501383 5.018223 0.195406
v 0.532264 5.016998 0.093607
v 0.542692 5.015722 -0.012259
v 0.542692 5.015722 -0.012259
v 0.532264 5.014448 -0.118126
v 0.501382 5.013221 -0.219923
v 0.451231 5.012093 -0.313741
v 0.383741 5.011102 -0.395972
v 0.301503 5.010290 -0.463459
v 0.207678 5.009686 -0.513604
v 0.105873 5.009313 -0.544485
v 0.000000 4.873388 -0.594308
v -0.113879 4.873522 -0.583092
v -0.223381 4.873922 -0.549878
v -0.324298 4.874571 -0.495941
v -0.412753 4.875447 -0.423352
v -0.485347 4.876512 -0.334903
v -0.539288 4.877727 -0.233993
v -0.572505 4.879045 -0.124499
v -0.583721 4.880416 -0.010629
v -0.583721 4.880416 -0.010629
v -0.572505 4.881787 0.103241
v -0.539288 4.883106 0.212735
v 0.539288 4.883106 0.212735
v 0.572505 4.881787 0.103241
v 0.583721 4.880416 -0.010630
v 0.583721 4.880416 -0.010630
v 0.572505 4.879045 -0.124500
v 0.539288 4.877726 -0.233994
v 0.485346 4.876511 -0.334904
v 0.412753 4.875446 -0.423353
v 0.324297 4.874571 -0.495941
v 0.223379 4.873923 -0.549879
v 0.113877 4.873522 -0.583092
v 0.000000 4.533138 -0.591310
v -0.114093 4.533274 -0.580074
v -0.223801 4.533674 -0.546797
v -0.324909 4.534325 -0.492757
v -0.413531 4.535201 -0.420033
v -0.486261 4.536268 -0.331418
v -0.540304 4.537486 -0.230317
v -0.573584 4.538807 -0.120616
v -0.584821 4.540181 -0.006531
v -0.584821 4.540181 -0.006531
v -0.573584 4.541554 0.107553
v -0.540304 4.542876 0.217253
v 0.540304 4.542876 0.217253
v 0.573584 4.541554 0.107553
v 0.584821 4.540181 -0.006532
v 0.584821 4.540181 -0.006532
v 0.573584 4.538807 -0.120617
v 0.540304 4.537486 -0.230317
v 0.486261 4.536268 -0.331418
v 0.413530 4.535201 -0.420034
v 0.324909 4.534325 -0.492757
v 0.223801 4.533674 -0.546797
v 0.114092 4.533274 -0.580074
v -0.398712 3.957155 0.165654
v -0.358832 3.958053 0.240259
v -0.305161 3.958841 0.305653
v -0.239764 3.959486 0.359319
v -0.165152 3.959967 0.399197
v -0.084194 3.960263 0.423753
v 0.000000 3.960363 0.432045
v 0.084194 3.960262 0.423753
v 0.165152 3.959967 0.399197
v 0.239764 3.959486 0.359319
v 0.305161 3.958841 0.305653
v 0.358831 3.958052 0.240259
v 0.398713 3.957155 0.165654
v -0.501382 4.067139 0.206859
v -0.451232 4.068270 0.300677
v -0.383742 4.069260 0.382909
v -0.301504 4.070073 0.450395
v -0.207679 4.070677 0.500541
v -0.105874 4.071048 0.531421
v 0.000000 4.071173 0.541848
v 0.105874 4.071048 0.531422
v 0.207679 4.070676 0.500541
v 0.301504 4.070073 0.450395
v 0.383742 4.069260 0.382909
v 0.451232 4.068269 0.300677
v 0.501383 4.067140 0.206859
v -0.539288 4.202635 0.220930
v -0.485346 4.203851 0.321840
v -0.412753 4.204916 0.410289
v -0.324298 4.205790 0.482877
v -0.223380 4.206439 0.536815
v -0.113878 4.206840 0.570029
v 0.000000 4.206975 0.581245
v 0.113879 4.206840 0.570029
v 0.223381 4.206439 0.536815
v 0.324298 4.205790 0.482877
v 0.412753 4.204916 0.410289
v 0.485347 4.203851 0.321839
v 0.539288 4.202635 0.220930
v -0.398712 5.127185 0.151563
v -0.358832 5.128084 0.226169
v -0.305161 5.128871 0.291562
v -0.239764 5.129518 0.345228
v -0.165152 5.129998 0.385107
v -0.084194 5.130293 0.409663
v 0.000000 5.130393 0.417955
v 0.084194 5.130293 0.409663
v 0.165152 5.129998 0.385107
v 0.239764 5.129518 0.345228
v 0.305161 5.128871 0.291562
v 0.358831 5.128084 0.226169
v 0.398713 5.127185 0.151563
v -0.501382 5.018224 0.195406
v -0.451232 5.019354 0.289223
v -0.383742 5.020344 0.371455
v -0.301504 5.021157 0.438941
v -0.207679 5.021760 0.489088
v -0.105874 5.022132 0.519967
v 0.000000 5.022258 0.530395
v 0.105874 5.022131 0.519968
v 0.207679 5.021761 0.489088
v 0.301504 5.021156 0.438941
v 0.383742 5.020344 0.371455
v 0.451232 5.019354 0.289223
v 0.501383 5.018223 0.195406
v -0.539288 4.883106 0.212735
v -0.485346 4.884321 0.313646
v -0.412753 4.885386 0.402094
v -0.324298 4.886261 0.474682
v -0.223380 4.886910 0.528620
v -0.113878 4.887310 0.561835
v 0.000000 4.887445 0.573050
v 0.113879 4.887310 0.561835
v 0.223381 4.886910 0.528620
v 0.324298 4.886261 0.474682
v 0.412753 4.885386 0.402094
v 0.485347 4.884321 0.313645
v 0.539288 4.883106 0.212735
v -0.540304 4.542876 0.217253
v -0.486261 4.544093 0.318354
v -0.413531 4.545160 0.406970
v -0.324910 4.546036 0.479694
v -0.223802 4.546687 0.533734
v -0.114093 4.547088 0.567011
v 0.000000 4.547223 0.578247
v 0.114093 4.547088 0.567011
v 0.223801 4.546687 0.533734
v 0.324909 4.546036 0.479694
v 0.413531 4.545160 0.406970
v 0.486261 4.544093 0.318354
v 0.540304 4.542876 0.217253
vn 0.0641 -0.9839 0.1667
vn -0.1548 -0.9850 0.0760
vn -0.0641 -0.9876 -0.1430
vn -0.1036 -0.8536 -0.5105
vn -0.0000 -0.5209 -0.8536
vn -0.0000 -0.8538 -0.5207
vn 0.0931 -0.9841 0.1512
vn 0.3753 -0.8429 0.3856
vn 0.2949 -0.8421 0.4516
vn -0.1644 -0.9862 -0.0208
vn -0.4905 -0.8498 -0.1930
vn -0.1548 -0.9866 -0.0523
vn 0.1185 -0.9844 0.1303
vn 0.4414 -0.8439 0.3051
vn -0.5309 -0.8474 0.0102
vn -0.5207 -0.8486 -0.0934
vn 0.1393 -0.9847 0.1050
vn 0.4905 -0.8449 0.2134
vn -0.1644 -0.9854 0.0446
vn -0.1676 -0.9858 0.0119
vn 0.1548 -0.9850 0.0760
vn 0.5207 -0.8461 0.1138
vn -0.5207 -0.8461 0.1138
vn 0.1676 -0.9858 0.0119
vn 0.1644 -0.9854 0.0446
vn -0.1393 -0.9847 0.1050
vn -0.4905 -0.8449 0.2134
vn 0.5207 -0.8486 -0.0934
vn 0.5309 -0.8474 0.0102
vn -0.1185 -0.9844 0.1303
vn -0.4413 -0.8439 0.3050
vn 0.1548 -0.9866 -0.0523
vn 0.1644 -0.9862 -0.0208
vn -0.0931 -0.9841 0.1512
vn -0.3753 -0.8429 0.3855
vn 0.4414 -0.8509 -0.2847
vn 0.4905 -0.8498 -0.1929
vn -0.2032 -0.8415 0.5006
vn -0.2949 -0.8421 0.4515
vn -0.0327 -0.9878 -0.1525
vn -0.0000 -0.9878 -0.1557
vn 0.1393 -0.9869 -0.0812
vn 0.3754 -0.8519 -0.3652
vn -0.0327 -0.9838 0.1762
vn -0.0641 -0.9839 0.1667
vn 0.0931 -0.9875 -0.1275
vn 0.1185 -0.9872 -0.1066
vn -0.0000 -0.8411 0.5410
vn -0.1036 -0.8412 0.5308
vn -0.2950 -0.8527 -0.4312
vn -0.2032 -0.8533 -0.4802
vn 0.2032 -0.8533 -0.4802
vn 0.2949 -0.8527 -0.4312
vn 0.0327 -0.9838 0.1762
vn -0.0000 -0.9838 0.1794
vn -0.1185 -0.9872 -0.1066
vn -0.0931 -0.9875 -0.1275
vn 0.0641 -0.9876 -0.1430
vn 0.1036 -0.8536 -0.5105
vn 0.2031 -0.8415 0.5006
vn 0.1036 -0.8412 0.5307
vn -0.1393 -0.9869 -0.0812
vn -0.3754 -0.8519 -0.3652
vn 0.0327 -0.9878 -0.1525
vn -0.4414 -0.8509 -0.2847
vn -0.4777 -0.5191 -0.7087
vn -0.6994 -0.1554 -0.6976
vn -0.5495 -0.1569 -0.8206
vn 0.6080 -0.5178 -0.6018
vn 0.7149 -0.5163 -0.4715
vn -0.1677 -0.5207 -0.8371
vn 0.4777 -0.5191 -0.7087
vn -0.3290 -0.5201 -0.7882
vn 0.3290 -0.5201 -0.7882
vn -0.6080 -0.5178 -0.6018
vn 0.1677 -0.5207 -0.8371
vn -0.7149 -0.5163 -0.4715
vn -0.7944 -0.5145 -0.3229
vn -0.8599 -0.5105 0.0061
vn -0.8433 -0.5125 -0.1616
vn -0.8599 -0.5104 0.0062
vn 0.8433 -0.5085 0.1739
vn 0.7944 -0.5065 0.3351
vn -0.8433 -0.5085 0.1739
vn 0.8433 -0.5125 -0.1616
vn 0.8599 -0.5105 0.0062
vn 0.7944 -0.5145 -0.3229
vn -0.9701 -0.1493 -0.1912
vn -0.9239 -0.0046 -0.3827
vn -0.9139 -0.1515 -0.3767
vn 0.3785 -0.1580 -0.9120
vn -0.0000 -0.1589 -0.9873
vn 0.1930 -0.1586 -0.9683
vn -0.8224 -0.1536 -0.5477
vn -0.9891 -0.1470 0.0018
vn -0.9701 -0.1446 0.1947
vn 0.9701 -0.1446 0.1947
vn 0.9139 -0.1424 0.3802
vn -0.7944 -0.5065 0.3351
vn 0.8599 -0.5105 0.0061
vn 0.9701 -0.1493 -0.1912
vn 0.9891 -0.1470 0.0018
vn 0.8224 -0.1536 -0.5477
vn 0.9138 -0.1515 -0.3767
vn -0.1930 -0.1586 -0.9683
vn 0.5495 -0.1569 -0.8206
vn 0.6994 -0.1554 -0.6976
vn -0.3785 -0.1580 -0.9120
vn -0.9808 -0.0023 -0.1951
vn -1.0000 -0.0000 -0.0000
vn 0.9239 0.0046 0.3827
vn -0.9139 -0.1424 0.3802
vn -0.9808 0.0023 0.1951
vn 0.9808 0.0023 0.1951
vn 1.0000 -0.0000 -0.0000
vn 0.9808 -0.0023 -0.1951
vn 0.9239 -0.0046 -0.3827
vn -0.0000 -0.0120 -0.9999
vn 0.8315 -0.0067 -0.5555
vn -0.1951 -0.0118 -0.9807
vn 0.7071 -0.0085 -0.7071
vn -0.3827 -0.0111 -0.9238
vn 0.5556 -0.0100 -0.8314
vn -0.5556 -0.0100 -0.8314
vn 0.3827 -0.0111 -0.9238
vn -0.7071 -0.0085 -0.7071
vn 0.1951 -0.0118 -0.9807
vn -0.8315 -0.0067 -0.5555
vn -0.0000 0.9878 0.1557
vn 0.1185 0.9844 -0.1304
vn -0.0000 0.9838 -0.1794
vn -0.0000 0.5002 -0.8659
vn -0.1036 0.8411 -0.5309
vn -0.0000 0.8410 -0.5411
vn 0.0931 0.9875 0.1275
vn 0.3754 0.8519 0.3651
vn 0.1185 0.9872 0.1066
vn -0.4905 0.8449 -0.2134
vn -0.1644 0.9854 -0.0446
vn -0.1548 0.9850 -0.0760
vn 0.4414 0.8510 0.2846
vn 0.1393 0.9869 0.0812
vn -0.5309 0.8474 -0.0102
vn -0.1676 0.9858 -0.0119
vn 0.4905 0.8498 0.1930
vn 0.1548 0.9866 0.0523
vn -0.1644 0.9862 0.0208
vn 0.5207 0.8486 0.0934
vn 0.1644 0.9862 0.0208
vn -0.5207 0.8486 0.0934
vn -0.1548 0.9866 0.0523
vn 0.1676 0.9858 -0.0119
vn -0.4905 0.8498 0.1930
vn -0.1393 0.9869 0.0812
vn 0.5207 0.8461 -0.1138
vn 0.1644 0.9854 -0.0446
vn -0.4414 0.8510 0.2846
vn -0.1185 0.9872 0.1066
vn 0.1548 0.9850 -0.0760
vn -0.3753 0.8519 0.3652
vn -0.0931 0.9875 0.1275
vn 0.4414 0.8438 -0.3051
vn 0.1393 0.9847 -0.1049
vn -0.2031 0.8533 0.4802
vn -0.0641 0.9877 0.1429
vn -0.0327 0.9838 -0.1762
vn 0.3754 0.8428 -0.3856
vn -0.0327 0.9878 0.1525
vn -0.0641 0.9839 -0.1667
vn 0.0931 0.9841 -0.1512
vn -0.0000 0.8538 0.5205
vn -0.2950 0.8421 -0.4516
vn -0.0931 0.9841 -0.1512
vn 0.2032 0.8415 -0.5007
vn 0.0641 0.9839 -0.1667
vn 0.0327 0.9878 0.1525
vn -0.1185 0.9844 -0.1304
vn 0.1036 0.8411 -0.5309
vn 0.0327 0.9838 -0.1762
vn 0.2032 0.8533 0.4802
vn 0.0641 0.9877 0.1429
vn -0.3754 0.8429 -0.3856
vn -0.1393 0.9847 -0.1050
vn -0.4414 0.8438 -0.3051
vn -0.4777 0.5019 -0.7210
vn -0.6994 0.1385 -0.7011
vn -0.6080 0.5032 -0.6141
vn 0.6080 0.5032 -0.6141
vn -0.1677 0.5004 -0.8494
vn -0.2032 0.8415 -0.5007
vn 0.4777 0.5019 -0.7210
vn 0.2949 0.8421 -0.4516
vn 0.3290 0.5009 -0.8005
vn -0.7149 0.5048 -0.4838
vn -0.7944 0.5065 -0.3352
vn -0.5207 0.8461 -0.1138
vn -0.8599 0.5105 -0.0062
vn -0.8599 0.5104 -0.0062
vn 0.8433 0.5125 0.1616
vn -0.8433 0.5125 0.1616
vn 0.5309 0.8474 -0.0102
vn 0.8433 0.5085 -0.1739
vn 0.4905 0.8449 -0.2134
vn 0.7149 0.5048 -0.4838
vn -0.9701 0.1446 -0.1947
vn -0.9139 0.1424 -0.3803
vn 0.3785 0.1359 -0.9156
vn 0.1677 0.5003 -0.8494
vn -0.0000 0.1350 -0.9908
vn -0.8224 0.1403 -0.5513
vn -0.8433 0.5085 -0.1739
vn -0.9891 0.1470 -0.0018
vn -0.9701 0.1493 0.1912
vn 0.7944 0.5144 0.3228
vn 0.9701 0.1493 0.1912
vn -0.7944 0.5145 0.3228
vn 0.8599 0.5105 -0.0061
vn 0.9701 0.1446 -0.1947
vn 0.7944 0.5065 -0.3352
vn 0.8224 0.1403 -0.5513
vn 0.6994 0.1385 -0.7011
vn -0.1930 0.1353 -0.9718
vn -0.3291 0.5009 -0.8005
vn 0.5495 0.1370 -0.8242
vn -0.5495 0.1370 -0.8242
vn 0.9139 0.1515 0.3767
vn -0.9139 0.1515 0.3767
vn 0.9891 0.1470 -0.0018
vn 0.9138 0.1424 -0.3803
vn -0.3785 0.1359 -0.9156
vn 0.1930 0.1353 -0.9718
vn -0.9239 0.0046 0.3826
vn 0.2949 0.8528 0.4311
vn -0.2949 0.8527 0.4312
vn -0.1036 0.8537 0.5103
vn 0.1036 0.8537 0.5103
vn -0.1036 -0.8411 0.5309
vn -0.3290 -0.5009 0.8005
vn -0.2032 -0.8414 0.5007
vn -0.0000 -0.5002 0.8659
vn -0.1677 -0.5004 0.8494
vn 0.1036 -0.8411 0.5309
vn -0.0000 -0.8410 0.5411
vn 0.3290 -0.5009 0.8005
vn 0.1677 -0.5004 0.8494
vn 0.2950 -0.8420 0.4517
vn 0.2032 -0.8414 0.5007
vn 0.6080 -0.5032 0.6141
vn 0.4777 -0.5019 0.7210
vn 0.3754 -0.8428 0.3856
vn 0.7149 -0.5048 0.4838
vn 0.4414 -0.8438 0.3052
vn -0.4415 -0.8438 0.3052
vn -0.7944 -0.5065 0.3352
vn -0.3754 -0.8428 0.3856
vn -0.7149 -0.5048 0.4838
vn -0.2950 -0.8420 0.4517
vn -0.6080 -0.5032 0.6141
vn -0.4777 -0.5019 0.7210
vn 0.3785 -0.1359 0.9156
vn 0.1930 -0.1353 0.9718
vn 0.6994 -0.1385 0.7011
vn 0.5495 -0.1370 0.8241
vn 0.8224 -0.1403 0.5513
vn 0.7944 -0.5065 0.3352
vn -0.9138 -0.1424 0.3803
vn -0.8224 -0.1403 0.5513
vn -0.6994 -0.1385 0.7011
vn -0.5495 -0.1370 0.8242
vn -0.1930 -0.1353 0.9718
vn -0.3785 -0.1359 0.9156
vn -0.0000 -0.1350 0.9908
vn 0.7071 0.0085 0.7071
vn 0.9138 -0.1424 0.3803
vn 0.8315 0.0067 0.5555
vn -0.9239 0.0046 0.3827
vn -0.8315 0.0067 0.5555
vn -0.7071 0.0085 0.7071
vn -0.5556 0.0100 0.8314
vn -0.3827 0.0111 0.9238
vn -0.1951 0.0118 0.9807
vn -0.0000 0.0120 0.9999
vn 0.1951 0.0118 0.9807
vn 0.3827 0.0111 0.9238
vn 0.5556 0.0100 0.8314
vn -0.3291 0.5201 0.7882
vn -0.1036 0.8536 0.5106
vn -0.2032 0.8532 0.4804
vn -0.0000 0.5209 0.8536
vn -0.0000 0.8537 0.5207
vn 0.1036 0.8536 0.5105
vn 0.3291 0.5201 0.7882
vn 0.2032 0.8533 0.4803
vn 0.2950 0.8526 0.4313
vn 0.6080 0.5178 0.6018
vn 0.3754 0.8519 0.3652
vn 0.7149 0.5163 0.4715
vn 0.4415 0.8509 0.2848
vn -0.7944 0.5144 0.3229
vn -0.4414 0.8509 0.2848
vn -0.7149 0.5163 0.4715
vn -0.3754 0.8519 0.3652
vn -0.6080 0.5178 0.6018
vn -0.2950 0.8526 0.4313
vn 0.1677 0.5207 0.8371
vn 0.3785 0.1580 0.9120
vn 0.4777 0.5191 0.7087
vn 0.6994 0.1554 0.6976
vn 0.8224 0.1536 0.5477
vn 0.7944 0.5144 0.3229
vn -0.9138 0.1516 0.3767
vn -0.8224 0.1536 0.5477
vn -0.6994 0.1554 0.6976
vn -0.4777 0.5191 0.7087
vn -0.5495 0.1569 0.8206
vn -0.1930 0.1586 0.9683
vn -0.1677 0.5207 0.8371
vn -0.0000 0.1589 0.9873
vn 0.9138 0.1516 0.3767
vn -0.3785 0.1580 0.9120
vn 0.1930 0.1586 0.9683
vn 0.5495 0.1568 0.8206
vt 0.238096 0.162005
vt 0.138119 0.000001
vt 0.036019 0.093564
vt 0.131030 0.000001
vt 0.840885 0.000001
vt 0.955066 0.093564
vt 0.928664 0.093565
vt 0.159116 0.000001
vt 0.044934 0.093564
vt 0.868970 0.000001
vt 0.861881 0.000001
vt 0.010530 0.209208
vt 0.000940 0.209208
vt 0.989470 0.209208
vt 0.961071 0.209208
vt 0.071337 0.093564
vt 0.963981 0.093565
vt 0.000000 0.500000
vt 0.961940 0.500000
vt 0.038929 0.209208
vt 0.009607 0.500000
vt 0.999059 0.209208
vt 0.990393 0.500000
vt 0.036019 0.906436
vt 0.138119 1.000000
vt 0.131030 1.000000
vt 0.840885 1.000000
vt 0.955066 0.906436
vt 0.861881 1.000000
vt 0.044934 0.906436
vt 0.159116 1.000000
vt 0.868970 1.000000
vt 0.010530 0.790792
vt 0.928664 0.906435
vt 0.989470 0.790792
vt 0.071337 0.906436
vt 0.963981 0.906435
vt 0.000940 0.790792
vt 0.961071 0.790792
vt 0.038929 0.790792
vt 0.999059 0.790792
vt 0.038060 0.500000
vt 1.000000 0.500000
vt 0.428017 0.000001
vt 0.322442 0.093565
vt 0.358801 0.000001
vt 0.500000 0.093564
vt 0.409482 0.093565
vt 0.571983 0.000000
vt 0.500000 0.000001
vt 0.677558 0.093564
vt 0.590518 0.093565
vt 0.704989 0.000000
vt 0.641199 0.000001
vt 0.828085 0.093565
vt 0.757775 0.093565
vt 0.760901 0.000001
vt 0.885786 0.093564
vt 0.806787 0.000000
vt 0.193212 0.000001
vt 0.239099 0.000001
vt 0.114214 0.093565
vt 0.295011 0.000000
vt 0.171915 0.093565
vt 0.242225 0.093565
vt 0.690982 0.209208
vt 0.597362 0.209208
vt 0.852888 0.209208
vt 0.777263 0.209208
vt 0.914954 0.209208
vt 0.085047 0.209208
vt 0.147112 0.209208
vt 0.222737 0.209208
vt 0.402639 0.209208
vt 0.309018 0.209208
vt 0.500000 0.209208
vt 0.853553 0.500000
vt 0.915735 0.500000
vt 0.084265 0.500000
vt 0.146446 0.500000
vt 0.222214 0.500000
vt 0.308658 0.500000
vt 0.402455 0.500000
vt 0.500000 0.500000
vt 0.597545 0.500000
vt 0.691341 0.500000
vt 0.777785 0.500000
vt 0.322442 0.906435
vt 0.428017 1.000000
vt 0.358801 1.000000
vt 0.500000 0.906436
vt 0.500000 1.000000
vt 0.571983 1.000000
vt 0.677558 0.906436
vt 0.641199 1.000000
vt 0.704989 1.000000
vt 0.828085 0.906436
vt 0.760901 1.000000
vt 0.885786 0.906436
vt 0.806787 1.000000
vt 0.193212 1.000000
vt 0.114214 0.906436
vt 0.239099 1.000000
vt 0.171915 0.906436
vt 0.295011 1.000000
vt 0.590518 0.906435
vt 0.690982 0.790792
vt 0.757775 0.906435
vt 0.852888 0.790792
vt 0.914954 0.790792
vt 0.085047 0.790792
vt 0.147112 0.790792
vt 0.242225 0.906436
vt 0.222737 0.790792
vt 0.402639 0.790792
vt 0.409482 0.906436
vt 0.500000 0.790792
vt 0.309018 0.790792
vt 0.597362 0.790792
vt 0.777263 0.790792
s 1
usemtl Head.002
f 19/1/1 11/1/2 3/1/3
f 34/1/4 71/1/5 33/1/6
f 20/1/7 56/1/8 55/1/9
f 8/1/10 39/1/11 7/1/12
f 21/1/13 57/1/14 56/1/8
f 8/1/10 42/1/15 40/1/16
f 22/1/17 58/1/18 57/1/14
f 10/1/19 42/1/15 9/1/20
f 23/1/21 60/1/22 58/1/18
f 11/1/2 44/1/23 10/1/19
f 25/1/24 60/1/22 24/1/25
f 12/1/26 46/1/27 11/1/2
f 25/1/24 64/1/28 62/1/29
f 13/1/30 47/1/31 12/1/26
f 27/1/32 64/1/28 26/1/33
f 14/1/34 48/1/35 13/1/30
f 27/1/32 66/1/36 65/1/37
f 14/1/34 50/1/38 49/1/39
f 2/1/40 33/1/6 1/1/41
f 28/1/42 67/1/43 66/1/36
f 16/1/44 50/1/38 15/1/45
f 3/1/3 34/1/4 2/1/40
f 30/1/46 67/1/43 29/1/47
f 16/1/44 52/1/48 51/1/49
f 3/1/3 36/1/50 35/1/51
f 30/1/46 69/1/52 68/1/53
f 18/1/54 52/1/48 17/1/55
f 5/1/56 36/1/50 4/1/57
f 31/1/58 70/1/59 69/1/52
f 18/1/54 54/1/60 53/1/61
f 6/1/62 37/1/63 5/1/56
f 32/1/64 33/1/6 70/1/59
f 20/1/7 54/1/60 19/1/1
f 7/1/12 38/1/65 6/1/62
f 74/1/66 98/1/67 97/1/68
f 66/1/36 90/1/69 89/1/70
f 35/1/51 72/1/71 34/1/4
f 67/1/43 91/1/72 90/1/69
f 35/1/51 74/1/66 73/1/73
f 68/1/53 92/1/74 91/1/72
f 37/1/63 74/1/66 36/1/50
f 70/1/59 92/1/74 69/1/52
f 38/1/65 75/1/75 37/1/63
f 70/1/59 71/1/5 93/1/76
f 39/1/11 76/1/77 38/1/65
f 40/1/16 77/1/78 39/1/11
f 40/1/16 80/1/79 78/1/80
f 43/2/23 79/3/81 41/4/15
f 59/5/18 84/6/82 83/7/83
f 45/8/27 81/9/84 43/2/23
f 63/10/29 84/6/82 61/11/22
f 62/1/29 87/1/85 85/1/86
f 65/1/37 87/1/85 64/1/28
f 65/1/37 89/1/70 88/1/87
f 101/1/88 239/1/89 100/1/90
f 93/1/76 115/1/91 92/1/74
f 76/1/77 98/1/67 75/1/75
f 93/1/76 94/1/92 116/1/93
f 77/1/78 99/1/94 76/1/77
f 78/1/80 100/1/90 77/1/78
f 78/1/80 103/1/95 101/1/88
f 79/3/81 104/12/96 102/13/95
f 83/7/83 107/14/97 106/15/98
f 82/16/99 104/12/96 81/9/84
f 86/17/100 107/14/97 84/6/82
f 85/1/86 110/1/101 108/1/102
f 88/1/87 110/1/101 87/1/85
f 88/1/87 112/1/103 111/1/104
f 72/1/71 94/1/92 71/1/5
f 90/1/69 112/1/103 89/1/70
f 73/1/73 95/1/105 72/1/71
f 90/1/69 114/1/106 113/1/107
f 73/1/73 97/1/68 96/1/108
f 91/1/72 115/1/91 114/1/106
f 103/1/95 240/1/109 101/1/88
f 104/12/96 241/18/110 102/13/95
f 107/14/97 245/19/111 106/15/98
f 105/20/112 243/21/113 104/12/96
f 109/22/102 246/23/114 107/14/97
f 110/1/101 247/1/115 108/1/102
f 111/1/104 249/1/116 110/1/101
f 112/1/103 250/1/117 111/1/104
f 95/1/105 233/1/118 94/1/92
f 113/1/107 251/1/119 112/1/103
f 96/1/108 234/1/120 95/1/105
f 114/1/106 252/1/121 113/1/107
f 97/1/68 235/1/122 96/1/108
f 115/1/91 253/1/123 114/1/106
f 98/1/67 236/1/124 97/1/68
f 116/1/93 254/1/125 115/1/91
f 99/1/94 237/1/126 98/1/67
f 94/1/92 255/1/127 116/1/93
f 100/1/90 238/1/128 99/1/94
f 133/1/129 145/1/130 117/1/131
f 187/1/132 150/1/133 149/1/134
f 136/1/135 172/1/136 137/1/137
f 155/1/138 124/1/139 123/1/140
f 137/1/137 173/1/141 138/1/142
f 124/1/139 158/1/143 125/1/144
f 138/1/142 174/1/145 139/1/146
f 158/1/143 126/1/147 125/1/144
f 139/1/146 176/1/148 140/1/149
f 160/1/150 127/1/151 126/1/147
f 176/1/148 141/1/152 140/1/149
f 162/1/153 128/1/154 127/1/151
f 141/1/152 180/1/155 142/1/156
f 163/1/157 129/1/158 128/1/154
f 180/1/155 143/1/159 142/1/156
f 164/1/160 130/1/161 129/1/158
f 143/1/159 182/1/162 144/1/163
f 130/1/161 166/1/164 131/1/165
f 149/1/134 118/1/166 117/1/131
f 144/1/163 183/1/167 145/1/130
f 166/1/164 132/1/168 131/1/165
f 150/1/133 119/1/169 118/1/166
f 183/1/167 146/1/170 145/1/130
f 132/1/168 168/1/171 133/1/129
f 119/1/169 152/1/172 120/1/173
f 146/1/170 185/1/174 147/1/175
f 168/1/171 134/1/176 133/1/129
f 152/1/172 121/1/177 120/1/173
f 147/1/175 186/1/178 148/1/179
f 134/1/176 170/1/180 135/1/181
f 153/1/182 122/1/183 121/1/177
f 148/1/179 149/1/134 117/1/131
f 170/1/180 136/1/135 135/1/181
f 154/1/184 123/1/140 122/1/183
f 190/1/185 214/1/186 191/1/187
f 182/1/162 206/1/188 183/1/167
f 188/1/189 151/1/190 150/1/133
f 183/1/167 207/1/191 184/1/192
f 151/1/190 190/1/185 152/1/172
f 184/1/192 208/1/193 185/1/174
f 190/1/185 153/1/182 152/1/172
f 208/1/193 186/1/178 185/1/174
f 191/1/187 154/1/184 153/1/182
f 186/1/178 187/1/132 149/1/134
f 192/1/194 155/1/138 154/1/184
f 193/1/195 156/1/196 155/1/138
f 156/1/196 196/1/197 158/1/143
f 195/24/198 159/25/150 157/26/143
f 175/27/145 200/28/199 177/29/148
f 197/30/200 161/31/153 159/25/150
f 200/28/199 179/32/201 177/29/148
f 178/1/201 203/1/202 180/1/155
f 203/1/202 181/1/203 180/1/155
f 181/1/203 205/1/204 182/1/162
f 239/1/89 217/1/205 216/1/206
f 231/1/207 209/1/208 208/1/193
f 214/1/186 192/1/194 191/1/187
f 209/1/208 210/1/209 187/1/132
f 215/1/210 193/1/195 192/1/194
f 216/1/206 194/1/211 193/1/195
f 194/1/211 219/1/212 196/1/197
f 195/24/198 220/33/213 197/30/200
f 199/34/214 223/35/215 200/28/199
f 220/33/213 198/36/216 197/30/200
f 223/35/215 202/37/217 200/28/199
f 201/1/217 226/1/218 203/1/202
f 226/1/218 204/1/219 203/1/202
f 204/1/219 228/1/220 205/1/204
f 210/1/209 188/1/189 187/1/132
f 205/1/204 229/1/221 206/1/188
f 211/1/222 189/1/223 188/1/189
f 206/1/188 230/1/224 207/1/191
f 189/1/223 213/1/225 190/1/185
f 207/1/191 231/1/207 208/1/193
f 240/1/109 219/1/212 217/1/205
f 218/38/212 243/21/113 220/33/213
f 245/19/111 223/35/215 222/39/226
f 243/21/113 221/40/227 220/33/213
f 246/23/114 225/41/228 223/35/215
f 224/1/228 249/1/116 226/1/218
f 249/1/116 227/1/229 226/1/218
f 250/1/117 228/1/220 227/1/229
f 233/1/118 211/1/222 210/1/209
f 228/1/220 252/1/121 229/1/221
f 234/1/120 212/1/230 211/1/222
f 252/1/121 230/1/224 229/1/221
f 235/1/122 213/1/225 212/1/230
f 253/1/123 231/1/207 230/1/224
f 236/1/124 214/1/186 213/1/225
f 254/1/125 232/1/231 231/1/207
f 237/1/126 215/1/210 214/1/186
f 255/1/127 210/1/209 232/1/231
f 238/1/128 216/1/206 215/1/210
f 3/1/3 2/1/40 1/1/41
f 1/1/41 32/1/64 31/1/58
f 31/1/58 30/1/46 29/1/47
f 29/1/47 28/1/42 31/1/58
f 27/1/32 26/1/33 23/1/21
f 25/1/24 24/1/25 23/1/21
f 23/1/21 22/1/17 19/1/1
f 21/1/13 20/1/7 19/1/1
f 19/1/1 18/1/54 17/1/55
f 17/1/55 16/1/44 15/1/45
f 15/1/45 14/1/34 13/1/30
f 13/1/30 12/1/26 15/1/45
f 11/1/2 10/1/19 9/1/20
f 9/1/20 8/1/10 7/1/12
f 7/1/12 6/1/62 5/1/56
f 5/1/56 4/1/57 3/1/3
f 3/1/3 1/1/41 31/1/58
f 31/1/58 28/1/42 27/1/32
f 26/1/33 25/1/24 23/1/21
f 22/1/17 21/1/13 19/1/1
f 19/1/1 17/1/55 15/1/45
f 15/1/45 12/1/26 11/1/2
f 11/1/2 9/1/20 7/1/12
f 7/1/12 5/1/56 11/1/2
f 3/1/3 31/1/58 27/1/32
f 27/1/32 23/1/21 3/1/3
f 19/1/1 15/1/45 11/1/2
f 11/1/2 5/1/56 3/1/3
f 3/1/3 23/1/21 19/1/1
f 34/1/4 72/1/71 71/1/5
f 20/1/7 21/1/13 56/1/8
f 8/1/10 40/1/16 39/1/11
f 21/1/13 22/1/17 57/1/14
f 8/1/10 9/1/20 42/1/15
f 22/1/17 23/1/21 58/1/18
f 10/1/19 44/1/23 42/1/15
f 23/1/21 24/1/25 60/1/22
f 11/1/2 46/1/27 44/1/23
f 25/1/24 62/1/29 60/1/22
f 12/1/26 47/1/31 46/1/27
f 25/1/24 26/1/33 64/1/28
f 13/1/30 48/1/35 47/1/31
f 27/1/32 65/1/37 64/1/28
f 14/1/34 49/1/39 48/1/35
f 27/1/32 28/1/42 66/1/36
f 14/1/34 15/1/45 50/1/38
f 2/1/40 34/1/4 33/1/6
f 28/1/42 29/1/47 67/1/43
f 16/1/44 51/1/49 50/1/38
f 3/1/3 35/1/51 34/1/4
f 30/1/46 68/1/53 67/1/43
f 16/1/44 17/1/55 52/1/48
f 3/1/3 4/1/57 36/1/50
f 30/1/46 31/1/58 69/1/52
f 18/1/54 53/1/61 52/1/48
f 5/1/56 37/1/63 36/1/50
f 31/1/58 32/1/64 70/1/59
f 18/1/54 19/1/1 54/1/60
f 6/1/62 38/1/65 37/1/63
f 32/1/64 1/1/41 33/1/6
f 20/1/7 55/1/9 54/1/60
f 7/1/12 39/1/11 38/1/65
f 74/1/66 75/1/75 98/1/67
f 66/1/36 67/1/43 90/1/69
f 35/1/51 73/1/73 72/1/71
f 67/1/43 68/1/53 91/1/72
f 35/1/51 36/1/50 74/1/66
f 68/1/53 69/1/52 92/1/74
f 37/1/63 75/1/75 74/1/66
f 70/1/59 93/1/76 92/1/74
f 38/1/65 76/1/77 75/1/75
f 70/1/59 33/1/6 71/1/5
f 39/1/11 77/1/78 76/1/77
f 40/1/16 78/1/80 77/1/78
f 40/1/16 42/1/15 80/1/79
f 43/2/23 81/9/84 79/3/81
f 59/5/18 61/11/22 84/6/82
f 45/8/27 82/16/99 81/9/84
f 63/10/29 86/17/100 84/6/82
f 62/1/29 64/1/28 87/1/85
f 65/1/37 88/1/87 87/1/85
f 65/1/37 66/1/36 89/1/70
f 101/1/88 240/1/109 239/1/89
f 93/1/76 116/1/93 115/1/91
f 76/1/77 99/1/94 98/1/67
f 93/1/76 71/1/5 94/1/92
f 77/1/78 100/1/90 99/1/94
f 78/1/80 101/1/88 100/1/90
f 78/1/80 80/1/79 103/1/95
f 79/3/81 81/9/84 104/12/96
f 83/7/83 84/6/82 107/14/97
f 82/16/99 105/20/112 104/12/96
f 86/17/100 109/22/102 107/14/97
f 85/1/86 87/1/85 110/1/101
f 88/1/87 111/1/104 110/1/101
f 88/1/87 89/1/70 112/1/103
f 72/1/71 95/1/105 94/1/92
f 90/1/69 113/1/107 112/1/103
f 73/1/73 96/1/108 95/1/105
f 90/1/69 91/1/72 114/1/106
f 73/1/73 74/1/66 97/1/68
f 91/1/72 92/1/74 115/1/91
f 103/1/95 242/1/110 240/1/109
f 104/12/96 243/21/113 241/18/110
f 107/14/97 246/23/114 245/19/111
f 105/20/112 244/42/232 243/21/113
f 109/22/102 248/43/115 246/23/114
f 110/1/101 249/1/116 247/1/115
f 111/1/104 250/1/117 249/1/116
f 112/1/103 251/1/119 250/1/117
f 95/1/105 234/1/120 233/1/118
f 113/1/107 252/1/121 251/1/119
f 96/1/108 235/1/122 234/1/120
f 114/1/106 253/1/123 252/1/121
f 97/1/68 236/1/124 235/1/122
f 115/1/91 254/1/125 253/1/123
f 98/1/67 237/1/126 236/1/124
f 116/1/93 255/1/127 254/1/125
f 99/1/94 238/1/128 237/1/126
f 94/1/92 233/1/118 255/1/127
f 100/1/90 239/1/89 238/1/128
f 117/1/131 118/1/166 119/1/169
f 119/1/169 120/1/173 117/1/131
f 121/1/177 122/1/183 125/1/144
f 123/1/140 124/1/139 125/1/144
f 125/1/144 126/1/147 127/1/151
f 127/1/151 128/1/154 129/1/158
f 129/1/158 130/1/161 131/1/165
f 131/1/165 132/1/168 133/1/129
f 133/1/129 134/1/176 135/1/181
f 135/1/181 136/1/135 137/1/137
f 137/1/137 138/1/142 139/1/146
f 139/1/146 140/1/149 141/1/152
f 141/1/152 142/1/156 145/1/130
f 143/1/159 144/1/163 145/1/130
f 145/1/130 146/1/170 147/1/175
f 147/1/175 148/1/179 117/1/131
f 117/1/131 120/1/173 121/1/177
f 122/1/183 123/1/140 125/1/144
f 125/1/144 127/1/151 133/1/129
f 129/1/158 131/1/165 133/1/129
f 133/1/129 135/1/181 137/1/137
f 137/1/137 139/1/146 133/1/129
f 142/1/156 143/1/159 145/1/130
f 145/1/130 147/1/175 117/1/131
f 117/1/131 121/1/177 125/1/144
f 127/1/151 129/1/158 133/1/129
f 133/1/129 139/1/146 141/1/152
f 141/1/152 145/1/130 133/1/129
f 117/1/131 125/1/144 133/1/129
f 187/1/132 188/1/189 150/1/133
f 136/1/135 171/1/233 172/1/136
f 155/1/138 156/1/196 124/1/139
f 137/1/137 172/1/136 173/1/141
f 124/1/139 156/1/196 158/1/143
f 138/1/142 173/1/141 174/1/145
f 158/1/143 160/1/150 126/1/147
f 139/1/146 174/1/145 176/1/148
f 160/1/150 162/1/153 127/1/151
f 176/1/148 178/1/201 141/1/152
f 162/1/153 163/1/157 128/1/154
f 141/1/152 178/1/201 180/1/155
f 163/1/157 164/1/160 129/1/158
f 180/1/155 181/1/203 143/1/159
f 164/1/160 165/1/234 130/1/161
f 143/1/159 181/1/203 182/1/162
f 130/1/161 165/1/234 166/1/164
f 149/1/134 150/1/133 118/1/166
f 144/1/163 182/1/162 183/1/167
f 166/1/164 167/1/235 132/1/168
f 150/1/133 151/1/190 119/1/169
f 183/1/167 184/1/192 146/1/170
f 132/1/168 167/1/235 168/1/171
f 119/1/169 151/1/190 152/1/172
f 146/1/170 184/1/192 185/1/174
f 168/1/171 169/1/236 134/1/176
f 152/1/172 153/1/182 121/1/177
f 147/1/175 185/1/174 186/1/178
f 134/1/176 169/1/236 170/1/180
f 153/1/182 154/1/184 122/1/183
f 148/1/179 186/1/178 149/1/134
f 170/1/180 171/1/233 136/1/135
f 154/1/184 155/1/138 123/1/140
f 190/1/185 213/1/225 214/1/186
f 182/1/162 205/1/204 206/1/188
f 188/1/189 189/1/223 151/1/190
f 183/1/167 206/1/188 207/1/191
f 151/1/190 189/1/223 190/1/185
f 184/1/192 207/1/191 208/1/193
f 190/1/185 191/1/187 153/1/182
f 208/1/193 209/1/208 186/1/178
f 191/1/187 192/1/194 154/1/184
f 186/1/178 209/1/208 187/1/132
f 192/1/194 193/1/195 155/1/138
f 193/1/195 194/1/211 156/1/196
f 156/1/196 194/1/211 196/1/197
f 195/24/198 197/30/200 159/25/150
f 175/27/145 199/34/214 200/28/199
f 197/30/200 198/36/216 161/31/153
f 200/28/199 202/37/217 179/32/201
f 178/1/201 201/1/217 203/1/202
f 203/1/202 204/1/219 181/1/203
f 181/1/203 204/1/219 205/1/204
f 239/1/89 240/1/109 217/1/205
f 231/1/207 232/1/231 209/1/208
f 214/1/186 215/1/210 192/1/194
f 209/1/208 232/1/231 210/1/209
f 215/1/210 216/1/206 193/1/195
f 216/1/206 217/1/205 194/1/211
f 194/1/211 217/1/205 219/1/212
f 195/24/198 218/38/212 220/33/213
f 199/34/214 222/39/226 223/35/215
f 220/33/213 221/40/227 198/36/216
f 223/35/215 225/41/228 202/37/217
f 201/1/217 224/1/228 226/1/218
f 226/1/218 227/1/229 204/1/219
f 204/1/219 227/1/229 228/1/220
f 210/1/209 211/1/222 188/1/189
f 205/1/204 228/1/220 229/1/221
f 211/1/222 212/1/230 189/1/223
f 206/1/188 229/1/221 230/1/224
f 189/1/223 212/1/230 213/1/225
f 207/1/191 230/1/224 231/1/207
f 240/1/109 242/1/110 219/1/212
f 218/38/212 241/18/110 243/21/113
f 245/19/111 246/23/114 223/35/215
f 243/21/113 244/42/232 221/40/227
f 246/23/114 248/43/115 225/41/228
f 224/1/228 247/1/115 249/1/116
f 249/1/116 250/1/117 227/1/229
f 250/1/117 251/1/119 228/1/220
f 233/1/118 234/1/120 211/1/222
f 228/1/220 251/1/119 252/1/121
f 234/1/120 235/1/122 212/1/230
f 252/1/121 253/1/123 230/1/224
f 235/1/122 236/1/124 213/1/225
f 253/1/123 254/1/125 231/1/207
f 236/1/124 237/1/126 214/1/186
f 254/1/125 255/1/127 232/1/231
f 237/1/126 238/1/128 215/1/210
f 255/1/127 233/1/118 210/1/209
f 238/1/128 239/1/89 216/1/206
f 261/44/237 273/45/238 260/46/239
f 261/44/237 275/47/240 274/48/241
f 263/49/242 275/47/240 262/50/243
f 263/49/242 277/51/244 276/52/245
f 265/53/246 277/51/244 264/54/247
f 265/53/246 279/55/248 278/56/249
f 266/57/250 280/58/251 279/55/248
f 268/5/18 280/58/251 267/59/252
f 257/60/253 269/16/254 256/8/27
f 258/61/255 270/62/256 257/60/253
f 259/63/257 271/64/258 258/61/255
f 259/63/257 273/45/238 272/65/259
f 276/52/245 290/66/260 289/67/261
f 278/56/249 290/66/260 277/51/244
f 278/56/249 292/68/262 291/69/263
f 279/55/248 293/70/264 292/68/262
f 281/7/265 293/70/264 280/58/251
f 270/62/256 282/20/266 269/16/254
f 271/64/258 283/71/267 270/62/256
f 272/65/259 284/72/268 271/64/258
f 273/45/238 285/73/269 272/65/259
f 273/45/238 287/74/270 286/75/271
f 274/48/241 288/76/272 287/74/270
f 276/52/245 288/76/272 275/47/240
f 293/70/264 344/77/273 292/68/262
f 294/15/274 345/78/275 293/70/264
f 283/71/267 334/42/276 282/20/266
f 284/72/268 335/79/277 283/71/267
f 285/73/269 336/80/278 284/72/268
f 286/75/271 337/81/279 285/73/269
f 287/74/270 338/82/280 286/75/271
f 288/76/272 339/83/281 287/74/270
f 289/67/261 340/84/282 288/76/272
f 290/66/260 341/85/283 289/67/261
f 291/69/263 342/86/284 290/66/260
f 292/68/262 343/87/285 291/69/263
f 312/88/286 300/89/287 299/90/288
f 300/89/287 314/91/289 301/92/290
f 314/91/289 302/93/291 301/92/290
f 302/93/291 316/94/292 303/95/293
f 316/94/292 304/96/294 303/95/293
f 304/96/294 318/97/295 305/98/296
f 305/98/296 319/99/297 306/100/298
f 319/99/297 307/27/145 306/100/298
f 308/36/299 296/101/300 295/31/153
f 309/102/301 297/103/302 296/101/300
f 310/104/303 298/105/304 297/103/302
f 298/105/304 312/88/286 299/90/288
f 315/106/305 329/107/306 316/94/292
f 329/107/306 317/108/307 316/94/292
f 317/108/307 331/109/308 318/97/295
f 318/97/295 332/110/309 319/99/297
f 332/110/309 320/34/310 319/99/297
f 321/40/311 309/102/301 308/36/299
f 322/111/312 310/104/303 309/102/301
f 323/112/313 311/113/314 310/104/303
f 324/114/315 312/88/286 311/113/314
f 312/88/286 326/115/316 313/116/317
f 313/116/317 327/117/318 314/91/289
f 327/117/318 315/106/305 314/91/289
f 344/77/273 332/110/309 331/109/308
f 345/78/275 333/39/319 332/110/309
f 334/42/276 322/111/312 321/40/311
f 335/79/277 323/112/313 322/111/312
f 336/80/278 324/114/315 323/112/313
f 337/81/279 325/118/320 324/114/315
f 338/82/280 326/115/316 325/118/320
f 339/83/281 327/117/318 326/115/316
f 340/84/282 328/119/321 327/117/318
f 341/85/283 329/107/306 328/119/321
f 342/86/284 330/120/322 329/107/306
f 343/87/285 331/109/308 330/120/322
f 261/44/237 274/48/241 273/45/238
f 261/44/237 262/50/243 275/47/240
f 263/49/242 276/52/245 275/47/240
f 263/49/242 264/54/247 277/51/244
f 265/53/246 278/56/249 277/51/244
f 265/53/246 266/57/250 279/55/248
f 266/57/250 267/59/252 280/58/251
f 268/5/18 281/7/265 280/58/251
f 257/60/253 270/62/256 269/16/254
f 258/61/255 271/64/258 270/62/256
f 259/63/257 272/65/259 271/64/258
f 259/63/257 260/46/239 273/45/238
f 276/52/245 277/51/244 290/66/260
f 278/56/249 291/69/263 290/66/260
f 278/56/249 279/55/248 292/68/262
f 279/55/248 280/58/251 293/70/264
f 281/7/265 294/15/274 293/70/264
f 270/62/256 283/71/267 282/20/266
f 271/64/258 284/72/268 283/71/267
f 272/65/259 285/73/269 284/72/268
f 273/45/238 286/75/271 285/73/269
f 273/45/238 274/48/241 287/74/270
f 274/48/241 275/47/240 288/76/272
f 276/52/245 289/67/261 288/76/272
f 293/70/264 345/78/275 344/77/273
f 294/15/274 346/19/111 345/78/275
f 283/71/267 335/79/277 334/42/276
f 284/72/268 336/80/278 335/79/277
f 285/73/269 337/81/279 336/80/278
f 286/75/271 338/82/280 337/81/279
f 287/74/270 339/83/281 338/82/280
f 288/76/272 340/84/282 339/83/281
f 289/67/261 341/85/283 340/84/282
f 290/66/260 342/86/284 341/85/283
f 291/69/263 343/87/285 342/86/284
f 292/68/262 344/77/273 343/87/285
f 312/88/286 313/116/317 300/89/287
f 300/89/287 313/116/317 314/91/289
f 314/91/289 315/106/305 302/93/291
f 302/93/291 315/106/305 316/94/292
f 316/94/292 317/108/307 304/96/294
f 304/96/294 317/108/307 318/97/295
f 305/98/296 318/97/295 319/99/297
f 319/99/297 320/34/310 307/27/145
f 308/36/299 309/102/301 296/101/300
f 309/102/301 310/104/303 297/103/302
f 310/104/303 311/113/314 298/105/304
f 298/105/304 311/113/314 312/88/286
f 315/106/305 328/119/321 329/107/306
f 329/107/306 330/120/322 317/108/307
f 317/108/307 330/120/322 331/109/308
f 318/97/295 331/109/308 332/110/309
f 332/110/309 333/39/319 320/34/310
f 321/40/311 322/111/312 309/102/301
f 322/111/312 323/112/313 310/104/303
f 323/112/313 324/114/315 311/113/314
f 324/114/315 325/118/320 312/88/286
f 312/88/286 325/118/320 326/115/316
f 313/116/317 326/115/316 327/117/318
f 327/117/318 328/119/321 315/106/305
f 344/77/273 345/78/275 332/110/309
f 345/78/275 346/19/111 333/39/319
f 334/42/276 335/79/277 322/111/312
f 335/79/277 336/80/278 323/112/313
f 336/80/278 337/81/279 324/114/315
f 337/81/279 338/82/280 325/118/320
f 338/82/280 339/83/281 326/115/316
f 339/83/281 340/84/282 327/117/318
f 340/84/282 341/85/283 328/119/321
f 341/85/283 342/86/284 329/107/306
f 342/86/284 343/87/285 330/120/322
f 343/87/285 344/77/273 331/109/308
