# Blender 5.2.0 LTS
# www.blender.org
mtllib LeftLeg.mtl
o RightLeg.003
v -0.050000 1.950000 -0.500000
v -0.050000 2.000000 -0.450000
v 0.000000 1.950000 -0.450000
v -0.050000 1.985355 -0.485355
v -0.050000 1.985355 -0.485355
v -0.021132 1.978868 -0.478868
v -0.021132 1.978868 -0.478868
v -0.021132 1.978868 -0.478868
v -0.014645 1.985355 -0.450000
v -0.014645 1.985355 -0.450000
v -0.014645 1.950000 -0.485355
v -0.014645 1.950000 -0.485355
v -0.050000 0.000000 -0.450000
v -0.050000 0.050000 -0.500000
v 0.000000 0.050000 -0.450000
v -0.050000 0.014645 -0.485355
v -0.050000 0.014645 -0.485355
v -0.021132 0.021132 -0.478868
v -0.021132 0.021132 -0.478868
v -0.021132 0.021132 -0.478868
v -0.014645 0.050000 -0.485355
v -0.014645 0.050000 -0.485355
v -0.014645 0.014645 -0.450000
v -0.014645 0.014645 -0.450000
v 0.000000 1.950000 0.450000
v -0.050000 2.000000 0.450000
v -0.050000 1.950000 0.500000
v -0.014645 1.985355 0.450000
v -0.014645 1.985355 0.450000
v -0.021132 1.978868 0.478868
v -0.021132 1.978868 0.478868
v -0.021132 1.978868 0.478868
v -0.050000 1.985355 0.485355
v -0.050000 1.985355 0.485355
v -0.014645 1.950000 0.485355
v -0.014645 1.950000 0.485355
v 0.000000 0.050000 0.450000
v -0.050000 0.050000 0.500000
v -0.050000 0.000000 0.450000
v -0.014645 0.050000 0.485355
v -0.014645 0.050000 0.485355
v -0.021132 0.021132 0.478868
v -0.021132 0.021132 0.478868
v -0.021132 0.021132 0.478868
v -0.050000 0.014645 0.485355
v -0.050000 0.014645 0.485355
v -0.014645 0.014645 0.450000
v -0.014645 0.014645 0.450000
v -0.950000 1.950000 -0.500000
v -1.000000 1.950000 -0.450000
v -0.950000 2.000000 -0.450000
v -0.985355 1.950000 -0.485355
v -0.985355 1.950000 -0.485355
v -0.978867 1.978868 -0.478868
v -0.978867 1.978868 -0.478868
v -0.978867 1.978868 -0.478868
v -0.985355 1.985355 -0.450000
v -0.985355 1.985355 -0.450000
v -0.950000 1.985355 -0.485355
v -0.950000 1.985355 -0.485355
v -1.000000 0.050000 -0.450000
v -0.950000 0.050000 -0.500000
v -0.950000 0.000000 -0.450000
v -0.985355 0.050000 -0.485355
v -0.985355 0.050000 -0.485355
v -0.978867 0.021132 -0.478868
v -0.978867 0.021132 -0.478868
v -0.978867 0.021132 -0.478868
v -0.950000 0.014645 -0.485355
v -0.950000 0.014645 -0.485355
v -0.985355 0.014645 -0.450000
v -0.985355 0.014645 -0.450000
v -1.000000 1.950000 0.450000
v -0.950000 1.950000 0.500000
v -0.950000 2.000000 0.450000
v -0.985355 1.950000 0.485355
v -0.985355 1.950000 0.485355
v -0.978867 1.978868 0.478868
v -0.978867 1.978868 0.478868
v -0.978867 1.978868 0.478868
v -0.950000 1.985355 0.485355
v -0.950000 1.985355 0.485355
v -0.985355 1.985355 0.450000
v -0.985355 1.985355 0.450000
v -0.950000 0.000000 0.450000
v -0.950000 0.050000 0.500000
v -1.000000 0.050000 0.450000
v -0.950000 0.014645 0.485355
v -0.950000 0.014645 0.485355
v -0.978867 0.021132 0.478868
v -0.978867 0.021132 0.478868
v -0.978867 0.021132 0.478868
v -0.985355 0.050000 0.485355
v -0.985355 0.050000 0.485355
v -0.985355 0.014645 0.450000
v -0.985355 0.014645 0.450000
vn 0.1794 0.1794 -0.9673
vn 0.1726 0.6965 -0.6965
vn 0.5774 0.5774 -0.5773
vn 0.6965 0.1726 -0.6965
vn 0.1794 0.9673 -0.1794
vn 0.6965 0.6965 -0.1726
vn 0.9673 0.1794 -0.1794
vn 0.1794 -0.9673 -0.1794
vn 0.1726 -0.6965 -0.6965
vn 0.5774 -0.5774 -0.5773
vn 0.6965 -0.6965 -0.1726
vn 0.1794 -0.1794 -0.9673
vn 0.6965 -0.1726 -0.6965
vn 0.9673 -0.1794 -0.1794
vn 0.9673 0.1794 0.1794
vn 0.6965 0.6965 0.1726
vn 0.5774 0.5774 0.5773
vn 0.6965 0.1726 0.6965
vn 0.1794 0.9673 0.1794
vn 0.1726 0.6965 0.6965
vn 0.1794 0.1794 0.9673
vn 0.9673 -0.1794 0.1794
vn 0.6965 -0.1726 0.6965
vn 0.5774 -0.5774 0.5773
vn 0.6965 -0.6965 0.1726
vn 0.1794 -0.1794 0.9673
vn 0.1726 -0.6965 0.6965
vn 0.1794 -0.9673 0.1794
vn -0.1794 0.1794 -0.9673
vn -0.6965 0.1726 -0.6965
vn -0.5774 0.5774 -0.5773
vn -0.1726 0.6965 -0.6965
vn -0.9673 0.1794 -0.1794
vn -0.6965 0.6965 -0.1726
vn -0.1794 0.9673 -0.1794
vn -0.9673 -0.1794 -0.1794
vn -0.6965 -0.1726 -0.6965
vn -0.5774 -0.5774 -0.5773
vn -0.6965 -0.6965 -0.1726
vn -0.1794 -0.1794 -0.9673
vn -0.1726 -0.6965 -0.6965
vn -0.1794 -0.9673 -0.1794
vn -0.9673 0.1794 0.1794
vn -0.6965 0.1726 0.6965
vn -0.5774 0.5774 0.5773
vn -0.6965 0.6965 0.1726
vn -0.1794 0.1794 0.9673
vn -0.1726 0.6965 0.6965
vn -0.1794 0.9673 0.1794
vn -0.1794 -0.9673 0.1794
vn -0.1726 -0.6965 0.6965
vn -0.5774 -0.5774 0.5773
vn -0.6965 -0.6965 0.1726
vn -0.1794 -0.1794 0.9673
vn -0.6965 -0.1726 0.6965
vn -0.9673 -0.1794 0.1794
vt 0.150281 0.367010
vt 0.150281 0.372603
vt 0.147148 0.372603
vt 0.144854 0.367010
vt 0.474467 0.480474
vt 0.479878 0.480474
vt 0.479878 0.483603
vt 0.474467 0.485894
vt 0.134683 0.366991
vt 0.140098 0.366991
vt 0.140098 0.370220
vt 0.134683 0.372583
vt 0.474571 0.041056
vt 0.474571 0.035636
vt 0.477702 0.035636
vt 0.479993 0.041056
vt 0.150281 0.154509
vt 0.144854 0.154509
vt 0.144854 0.151280
vt 0.150281 0.148917
vt 0.134683 0.154480
vt 0.134683 0.148888
vt 0.137809 0.148888
vt 0.140098 0.154480
vt 0.037219 0.366991
vt 0.037219 0.372584
vt 0.034093 0.372584
vt 0.031804 0.366991
vt 0.474467 0.382921
vt 0.474467 0.377501
vt 0.477591 0.377501
vt 0.479878 0.382921
vt 0.474731 0.367040
vt 0.480163 0.367040
vt 0.480163 0.370270
vt 0.474731 0.372635
vt 0.037219 0.154480
vt 0.031804 0.154480
vt 0.031804 0.151252
vt 0.037219 0.148888
vt 0.474731 0.154412
vt 0.474731 0.148817
vt 0.477867 0.148817
vt 0.480163 0.154412
vt 0.474571 0.138614
vt 0.479993 0.138614
vt 0.479993 0.141743
vt 0.474571 0.144034
vt 0.247955 0.367010
vt 0.253381 0.367010
vt 0.253381 0.370239
vt 0.247955 0.372603
vt 0.263738 0.366939
vt 0.263738 0.372530
vt 0.260606 0.372530
vt 0.258313 0.366939
vt 0.377072 0.480474
vt 0.377072 0.485894
vt 0.373948 0.485894
vt 0.371662 0.480474
vt 0.263738 0.154467
vt 0.258313 0.154467
vt 0.258313 0.151238
vt 0.263738 0.148875
vt 0.247955 0.154509
vt 0.247955 0.148917
vt 0.251088 0.148917
vt 0.253381 0.154509
vt 0.376988 0.041056
vt 0.371566 0.041056
vt 0.371566 0.037927
vt 0.376988 0.035636
vt 0.361395 0.366939
vt 0.366821 0.366939
vt 0.366821 0.370167
vt 0.361395 0.372530
vt 0.376957 0.367040
vt 0.376957 0.372635
vt 0.373821 0.372635
vt 0.371525 0.367040
vt 0.377072 0.382921
vt 0.371662 0.382921
vt 0.371662 0.379792
vt 0.377072 0.377501
vt 0.376988 0.138614
vt 0.376988 0.144034
vt 0.373858 0.144034
vt 0.371566 0.138614
vt 0.376957 0.154412
vt 0.371525 0.154412
vt 0.371525 0.151182
vt 0.376957 0.148817
vt 0.361395 0.154467
vt 0.361395 0.148875
vt 0.364528 0.148875
vt 0.366821 0.154467
s 1
usemtl Material.002
f 1/1/1 4/2/2 7/3/3
f 1/1/1 7/3/3 12/4/4
f 2/5/5 10/6/6 8/7/3
f 2/5/5 8/7/3 5/8/2
f 3/9/7 11/10/4 6/11/3
f 3/9/7 6/11/3 9/12/6
f 13/13/8 17/14/9 20/15/10
f 13/13/8 20/15/10 24/16/11
f 14/17/12 22/18/13 19/19/10
f 14/17/12 19/19/10 16/20/9
f 15/21/14 23/22/11 18/23/10
f 15/21/14 18/23/10 21/24/13
f 25/25/15 28/26/16 30/27/17
f 25/25/15 30/27/17 35/28/18
f 26/29/19 33/30/20 31/31/17
f 26/29/19 31/31/17 29/32/16
f 27/33/21 36/34/18 32/35/17
f 27/33/21 32/35/17 34/36/20
f 37/37/22 40/38/23 42/39/24
f 37/37/22 42/39/24 47/40/25
f 38/41/26 46/42/27 43/43/24
f 38/41/26 43/43/24 41/44/23
f 39/45/28 48/46/25 44/47/24
f 39/45/28 44/47/24 45/48/27
f 49/49/29 52/50/30 54/51/31
f 49/49/29 54/51/31 59/52/32
f 50/53/33 57/54/34 55/55/31
f 50/53/33 55/55/31 53/56/30
f 51/57/35 60/58/32 56/59/31
f 51/57/35 56/59/31 58/60/34
f 61/61/36 65/62/37 67/63/38
f 61/61/36 67/63/38 71/64/39
f 62/65/40 69/66/41 66/67/38
f 62/65/40 66/67/38 64/68/37
f 63/69/42 72/70/39 68/71/38
f 63/69/42 68/71/38 70/72/41
f 73/73/43 76/74/44 78/75/45
f 73/73/43 78/75/45 83/76/46
f 74/77/47 81/78/48 80/79/45
f 74/77/47 80/79/45 77/80/44
f 75/81/49 84/82/46 79/83/45
f 75/81/49 79/83/45 82/84/48
f 85/85/50 89/86/51 92/87/52
f 85/85/50 92/87/52 96/88/53
f 86/89/54 94/90/55 91/91/52
f 86/89/54 91/91/52 88/92/51
f 87/93/56 95/94/53 90/95/52
f 87/93/56 90/95/52 93/96/55
f 63/69/42 85/85/50 96/88/53
f 63/69/42 96/88/53 72/70/39
f 71/64/39 95/94/53 87/93/56
f 71/64/39 87/93/56 61/61/36
f 13/13/8 63/69/42 70/72/41
f 13/13/8 70/72/41 17/14/9
f 16/20/9 69/66/41 62/65/40
f 16/20/9 62/65/40 14/17/12
f 3/9/7 15/21/14 21/24/13
f 3/9/7 21/24/13 11/10/4
f 12/4/4 22/18/13 14/17/12
f 12/4/4 14/17/12 1/1/1
f 86/89/54 74/77/47 77/80/44
f 86/89/54 77/80/44 94/90/55
f 93/96/55 76/74/44 73/73/43
f 93/96/55 73/73/43 87/93/56
f 27/33/21 38/41/26 41/44/23
f 27/33/21 41/44/23 36/34/18
f 35/28/18 40/38/23 37/37/22
f 35/28/18 37/37/22 25/25/15
f 49/49/29 62/65/40 64/68/37
f 49/49/29 64/68/37 52/50/30
f 53/56/30 65/62/37 61/61/36
f 53/56/30 61/61/36 50/53/33
f 26/29/19 75/81/49 82/84/48
f 26/29/19 82/84/48 33/30/20
f 34/36/20 81/78/48 74/77/47
f 34/36/20 74/77/47 27/33/21
f 2/5/5 26/29/19 29/32/16
f 2/5/5 29/32/16 10/6/6
f 9/12/6 28/26/16 25/25/15
f 9/12/6 25/25/15 3/9/7
f 85/85/50 39/45/28 45/48/27
f 85/85/50 45/48/27 89/86/51
f 88/92/51 46/42/27 38/41/26
f 88/92/51 38/41/26 86/89/54
f 75/81/49 51/57/35 58/60/34
f 75/81/49 58/60/34 84/82/46
f 83/76/46 57/54/34 50/53/33
f 83/76/46 50/53/33 73/73/43
f 51/57/35 2/5/5 5/8/2
f 51/57/35 5/8/2 60/58/32
f 59/52/32 4/2/2 1/1/1
f 59/52/32 1/1/1 49/49/29
f 39/45/28 13/13/8 24/16/11
f 39/45/28 24/16/11 48/46/25
f 47/40/25 23/22/11 15/21/14
f 47/40/25 15/21/14 37/37/22
f 62/65/40 49/49/29 1/1/1
f 62/65/40 1/1/1 14/17/12
f 15/21/14 3/9/7 25/25/15
f 15/21/14 25/25/15 37/37/22
f 2/5/5 51/57/35 75/81/49
f 2/5/5 75/81/49 26/29/19
f 63/69/42 13/13/8 39/45/28
f 63/69/42 39/45/28 85/85/50
f 38/41/26 27/33/21 74/77/47
f 38/41/26 74/77/47 86/89/54
f 87/93/56 73/73/43 50/53/33
f 87/93/56 50/53/33 61/61/36
