# Blender 5.2.0 LTS
# www.blender.org
mtllib LeftArm.mtl
o RightArm.003
v -1.050002 3.952358 -0.500000
v -1.049784 4.002357 -0.450000
v -1.000003 3.952140 -0.450000
v -1.049848 3.987713 -0.485355
v -1.049848 3.987713 -0.485355
v -1.021009 3.981099 -0.478868
v -1.021009 3.981099 -0.478868
v -1.021009 3.981099 -0.478868
v -1.014493 3.987559 -0.450000
v -1.014493 3.987559 -0.450000
v -1.014647 3.952204 -0.485355
v -1.014647 3.952204 -0.485355
v -1.058511 2.002377 -0.450000
v -1.058292 2.052376 -0.500000
v -1.008293 2.052158 -0.450000
v -1.058447 2.017021 -0.485355
v -1.058447 2.017021 -0.485355
v -1.029551 2.023383 -0.478868
v -1.029551 2.023383 -0.478868
v -1.029551 2.023383 -0.478868
v -1.022937 2.052222 -0.485355
v -1.022937 2.052222 -0.485355
v -1.023092 2.016867 -0.450000
v -1.023092 2.016867 -0.450000
v -1.000003 3.952140 0.450000
v -1.049784 4.002357 0.450000
v -1.050002 3.952358 0.500000
v -1.014493 3.987559 0.450000
v -1.014493 3.987559 0.450000
v -1.021009 3.981099 0.478868
v -1.021009 3.981099 0.478868
v -1.021009 3.981099 0.478868
v -1.049848 3.987713 0.485355
v -1.049848 3.987713 0.485355
v -1.014647 3.952204 0.485355
v -1.014647 3.952204 0.485355
v -1.008293 2.052158 0.450000
v -1.058292 2.052376 0.500000
v -1.058511 2.002377 0.450000
v -1.022937 2.052222 0.485355
v -1.022937 2.052222 0.485355
v -1.029551 2.023383 0.478868
v -1.029551 2.023383 0.478868
v -1.029551 2.023383 0.478868
v -1.058447 2.017021 0.485355
v -1.058447 2.017021 0.485355
v -1.023092 2.016867 0.450000
v -1.023092 2.016867 0.450000
v -1.949993 3.956285 -0.500000
v -1.999993 3.956503 -0.450000
v -1.949775 4.006285 -0.450000
v -1.985348 3.956439 -0.485355
v -1.985348 3.956439 -0.485355
v -1.978735 3.985278 -0.478868
v -1.978735 3.985278 -0.478868
v -1.978735 3.985278 -0.478868
v -1.985194 3.991794 -0.450000
v -1.985194 3.991794 -0.450000
v -1.949839 3.991640 -0.485355
v -1.949839 3.991640 -0.485355
v -2.008283 2.056521 -0.450000
v -1.958284 2.056303 -0.500000
v -1.958502 2.006304 -0.450000
v -1.993639 2.056458 -0.485355
v -1.993639 2.056458 -0.485355
v -1.987277 2.027562 -0.478868
v -1.987277 2.027562 -0.478868
v -1.987277 2.027562 -0.478868
v -1.958438 2.020948 -0.485355
v -1.958438 2.020948 -0.485355
v -1.993793 2.021102 -0.450000
v -1.993793 2.021102 -0.450000
v -1.999993 3.956503 0.450000
v -1.949993 3.956285 0.500000
v -1.949775 4.006285 0.450000
v -1.985348 3.956439 0.485355
v -1.985348 3.956439 0.485355
v -1.978735 3.985278 0.478868
v -1.978735 3.985278 0.478868
v -1.978735 3.985278 0.478868
v -1.949839 3.991640 0.485355
v -1.949839 3.991640 0.485355
v -1.985194 3.991794 0.450000
v -1.985194 3.991794 0.450000
v -1.958502 2.006304 0.450000
v -1.958284 2.056303 0.500000
v -2.008283 2.056521 0.450000
v -1.958438 2.020948 0.485355
v -1.958438 2.020948 0.485355
v -1.987277 2.027562 0.478868
v -1.987277 2.027562 0.478868
v -1.987277 2.027562 0.478868
v -1.993639 2.056458 0.485355
v -1.993639 2.056458 0.485355
v -1.993793 2.021102 0.450000
v -1.993793 2.021102 0.450000
vn 0.1802 0.1786 -0.9673
vn 0.1756 0.6957 -0.6965
vn 0.5799 0.5748 -0.5773
vn 0.6972 0.1695 -0.6965
vn 0.1836 0.9665 -0.1794
vn 0.6995 0.6934 -0.1726
vn 0.5799 0.5749 -0.5773
vn 0.1756 0.6958 -0.6965
vn 0.9681 0.1752 -0.1794
vn 0.6972 0.1696 -0.6965
vn 0.1752 -0.9681 -0.1794
vn 0.1696 -0.6972 -0.6965
vn 0.5749 -0.5799 -0.5773
vn 0.6934 -0.6995 -0.1726
vn 0.1786 -0.1802 -0.9673
vn 0.6957 -0.1756 -0.6965
vn 0.1695 -0.6972 -0.6965
vn 0.9665 -0.1836 -0.1794
vn 0.9681 0.1752 0.1794
vn 0.6995 0.6935 0.1726
vn 0.5799 0.5749 0.5773
vn 0.6973 0.1695 0.6965
vn 0.1836 0.9665 0.1794
vn 0.1756 0.6957 0.6965
vn 0.1802 0.1786 0.9673
vn 0.6973 0.1696 0.6965
vn 0.5799 0.5748 0.5773
vn 0.9665 -0.1836 0.1794
vn 0.6957 -0.1756 0.6965
vn 0.5749 -0.5799 0.5773
vn 0.6935 -0.6995 0.1726
vn 0.1786 -0.1802 0.9673
vn 0.1696 -0.6973 0.6965
vn 0.1752 -0.9681 0.1794
vn 0.1695 -0.6973 0.6965
vn -0.1786 0.1802 -0.9673
vn -0.6957 0.1756 -0.6965
vn -0.5749 0.5799 -0.5773
vn -0.1695 0.6972 -0.6965
vn -0.9665 0.1836 -0.1794
vn -0.6934 0.6995 -0.1726
vn -0.1752 0.9681 -0.1794
vn -0.1696 0.6972 -0.6965
vn -0.9681 -0.1752 -0.1794
vn -0.6972 -0.1696 -0.6965
vn -0.5799 -0.5749 -0.5773
vn -0.6995 -0.6934 -0.1726
vn -0.1802 -0.1786 -0.9673
vn -0.1756 -0.6957 -0.6965
vn -0.5799 -0.5748 -0.5773
vn -0.6972 -0.1695 -0.6965
vn -0.1836 -0.9665 -0.1794
vn -0.1756 -0.6958 -0.6965
vn -0.9665 0.1836 0.1794
vn -0.6957 0.1756 0.6965
vn -0.5749 0.5799 0.5773
vn -0.6935 0.6995 0.1726
vn -0.1786 0.1802 0.9673
vn -0.1696 0.6973 0.6965
vn -0.1752 0.9681 0.1794
vn -0.1695 0.6973 0.6965
vn -0.1836 -0.9665 0.1794
vn -0.1756 -0.6957 0.6965
vn -0.5799 -0.5749 0.5773
vn -0.6995 -0.6935 0.1726
vn -0.1802 -0.1786 0.9673
vn -0.6973 -0.1696 0.6965
vn -0.5799 -0.5748 0.5773
vn -0.9681 -0.1752 0.1794
vn -0.6973 -0.1695 0.6965
vt 0.150413 0.366979
vt 0.150413 0.372569
vt 0.147283 0.372569
vt 0.144992 0.366979
vt 0.474534 0.480449
vt 0.479948 0.480449
vt 0.479948 0.483577
vt 0.474534 0.485866
vt 0.134644 0.366938
vt 0.140055 0.366938
vt 0.140055 0.370163
vt 0.134644 0.372524
vt 0.474461 0.041062
vt 0.474461 0.035642
vt 0.477584 0.035642
vt 0.479871 0.041062
vt 0.150413 0.154551
vt 0.144992 0.154551
vt 0.144992 0.151323
vt 0.150413 0.148961
vt 0.134644 0.154692
vt 0.134644 0.149107
vt 0.137768 0.149107
vt 0.140055 0.154692
vt 0.037239 0.366938
vt 0.037239 0.372524
vt 0.034115 0.372524
vt 0.031828 0.366938
vt 0.474534 0.382947
vt 0.474534 0.377530
vt 0.477659 0.377530
vt 0.479948 0.382947
vt 0.474404 0.366789
vt 0.479811 0.366789
vt 0.479811 0.370010
vt 0.474404 0.372368
vt 0.037239 0.154692
vt 0.031828 0.154692
vt 0.031828 0.151468
vt 0.037239 0.149107
vt 0.474404 0.154776
vt 0.474404 0.149197
vt 0.477525 0.149197
vt 0.479811 0.154776
vt 0.474461 0.138627
vt 0.479871 0.138627
vt 0.479871 0.141757
vt 0.474461 0.144048
vt 0.247984 0.366979
vt 0.253405 0.366979
vt 0.253405 0.370206
vt 0.247984 0.372569
vt 0.263822 0.366912
vt 0.263822 0.372499
vt 0.260698 0.372499
vt 0.258411 0.366912
vt 0.377085 0.480449
vt 0.377085 0.485866
vt 0.373960 0.485866
vt 0.371672 0.480449
vt 0.263822 0.154602
vt 0.258411 0.154602
vt 0.258411 0.151376
vt 0.263822 0.149015
vt 0.247984 0.154551
vt 0.247984 0.148961
vt 0.251114 0.148961
vt 0.253405 0.154551
vt 0.377083 0.041062
vt 0.371673 0.041062
vt 0.371673 0.037932
vt 0.377083 0.035642
vt 0.361210 0.366912
vt 0.366621 0.366912
vt 0.366621 0.370137
vt 0.361210 0.372499
vt 0.377088 0.366789
vt 0.377088 0.372368
vt 0.373966 0.372368
vt 0.371681 0.366789
vt 0.377085 0.382947
vt 0.371672 0.382947
vt 0.371672 0.379820
vt 0.377085 0.377530
vt 0.377083 0.138627
vt 0.377083 0.144048
vt 0.373959 0.144048
vt 0.371673 0.138627
vt 0.377088 0.154776
vt 0.371681 0.154776
vt 0.371681 0.151555
vt 0.377088 0.149197
vt 0.361210 0.154602
vt 0.361210 0.149015
vt 0.364334 0.149015
vt 0.366621 0.154602
s 1
usemtl Material.002
f 1/1/1 4/2/2 7/3/3
f 1/1/1 7/3/3 12/4/4
f 2/5/5 10/6/6 8/7/7
f 2/5/5 8/7/7 5/8/8
f 3/9/9 11/10/10 6/11/7
f 3/9/9 6/11/7 9/12/6
f 13/13/11 17/14/12 20/15/13
f 13/13/11 20/15/13 24/16/14
f 14/17/15 22/18/16 19/19/13
f 14/17/15 19/19/13 16/20/17
f 15/21/18 23/22/14 18/23/13
f 15/21/18 18/23/13 21/24/16
f 25/25/19 28/26/20 30/27/21
f 25/25/19 30/27/21 35/28/22
f 26/29/23 34/30/24 31/31/21
f 26/29/23 31/31/21 29/32/20
f 27/33/25 36/34/26 32/35/27
f 27/33/25 32/35/27 33/36/24
f 37/37/28 40/38/29 42/39/30
f 37/37/28 42/39/30 47/40/31
f 38/41/32 45/42/33 43/43/30
f 38/41/32 43/43/30 41/44/29
f 39/45/34 48/46/31 44/47/30
f 39/45/34 44/47/30 46/48/35
f 49/49/36 52/50/37 54/51/38
f 49/49/36 54/51/38 59/52/39
f 50/53/40 57/54/41 55/55/38
f 50/53/40 55/55/38 53/56/37
f 51/57/42 60/58/43 56/59/38
f 51/57/42 56/59/38 58/60/41
f 61/61/44 65/62/45 67/63/46
f 61/61/44 67/63/46 71/64/47
f 62/65/48 69/66/49 66/67/50
f 62/65/48 66/67/50 64/68/51
f 63/69/52 72/70/47 68/71/46
f 63/69/52 68/71/46 70/72/53
f 73/73/54 76/74/55 78/75/56
f 73/73/54 78/75/56 83/76/57
f 74/77/58 82/78/59 80/79/56
f 74/77/58 80/79/56 77/80/55
f 75/81/60 84/82/57 79/83/56
f 75/81/60 79/83/56 81/84/61
f 85/85/62 88/86/63 92/87/64
f 85/85/62 92/87/64 96/88/65
f 86/89/66 94/90/67 91/91/68
f 86/89/66 91/91/68 89/92/63
f 87/93/69 95/94/65 90/95/64
f 87/93/69 90/95/64 93/96/70
f 63/69/52 85/85/62 96/88/65
f 63/69/52 96/88/65 72/70/47
f 71/64/47 95/94/65 87/93/69
f 71/64/47 87/93/69 61/61/44
f 13/13/11 63/69/52 70/72/53
f 13/13/11 70/72/53 17/14/12
f 16/20/17 69/66/49 62/65/48
f 16/20/17 62/65/48 14/17/15
f 3/9/9 15/21/18 21/24/16
f 3/9/9 21/24/16 11/10/10
f 12/4/4 22/18/16 14/17/15
f 12/4/4 14/17/15 1/1/1
f 86/89/66 74/77/58 77/80/55
f 86/89/66 77/80/55 94/90/67
f 93/96/70 76/74/55 73/73/54
f 93/96/70 73/73/54 87/93/69
f 27/33/25 38/41/32 41/44/29
f 27/33/25 41/44/29 36/34/26
f 35/28/22 40/38/29 37/37/28
f 35/28/22 37/37/28 25/25/19
f 49/49/36 62/65/48 64/68/51
f 49/49/36 64/68/51 52/50/37
f 53/56/37 65/62/45 61/61/44
f 53/56/37 61/61/44 50/53/40
f 26/29/23 75/81/60 81/84/61
f 26/29/23 81/84/61 34/30/24
f 33/36/24 82/78/59 74/77/58
f 33/36/24 74/77/58 27/33/25
f 2/5/5 26/29/23 29/32/20
f 2/5/5 29/32/20 10/6/6
f 9/12/6 28/26/20 25/25/19
f 9/12/6 25/25/19 3/9/9
f 85/85/62 39/45/34 46/48/35
f 85/85/62 46/48/35 88/86/63
f 89/92/63 45/42/33 38/41/32
f 89/92/63 38/41/32 86/89/66
f 75/81/60 51/57/42 58/60/41
f 75/81/60 58/60/41 84/82/57
f 83/76/57 57/54/41 50/53/40
f 83/76/57 50/53/40 73/73/54
f 51/57/42 2/5/5 5/8/8
f 51/57/42 5/8/8 60/58/43
f 59/52/39 4/2/2 1/1/1
f 59/52/39 1/1/1 49/49/36
f 39/45/34 13/13/11 24/16/14
f 39/45/34 24/16/14 48/46/31
f 47/40/31 23/22/14 15/21/18
f 47/40/31 15/21/18 37/37/28
f 62/65/48 49/49/36 1/1/1
f 62/65/48 1/1/1 14/17/15
f 15/21/18 3/9/9 25/25/19
f 15/21/18 25/25/19 37/37/28
f 2/5/5 51/57/42 75/81/60
f 2/5/5 75/81/60 26/29/23
f 63/69/52 13/13/11 39/45/34
f 63/69/52 39/45/34 85/85/62
f 38/41/32 27/33/25 74/77/58
f 38/41/32 74/77/58 86/89/66
f 87/93/69 73/73/54 50/53/40
f 87/93/69 50/53/40 61/61/44
