# Blender 5.2.0 LTS
# www.blender.org
mtllib RightArm.mtl
o LeftArm.003
v 1.949993 3.956285 -0.500000
v 1.949775 4.006285 -0.450000
v 1.999993 3.956503 -0.450000
v 1.949839 3.991640 -0.485355
v 1.949839 3.991640 -0.485355
v 1.978735 3.985278 -0.478868
v 1.978735 3.985278 -0.478868
v 1.978735 3.985278 -0.478868
v 1.985194 3.991794 -0.450000
v 1.985194 3.991794 -0.450000
v 1.985348 3.956439 -0.485355
v 1.985348 3.956439 -0.485355
v 1.958502 2.006304 -0.450000
v 1.958284 2.056303 -0.500000
v 2.008283 2.056521 -0.450000
v 1.958438 2.020948 -0.485355
v 1.958438 2.020948 -0.485355
v 1.987277 2.027562 -0.478868
v 1.987277 2.027562 -0.478868
v 1.987277 2.027562 -0.478868
v 1.993639 2.056458 -0.485355
v 1.993639 2.056458 -0.485355
v 1.993793 2.021102 -0.450000
v 1.993793 2.021102 -0.450000
v 1.999993 3.956503 0.450000
v 1.949775 4.006285 0.450000
v 1.949993 3.956285 0.500000
v 1.985194 3.991794 0.450000
v 1.985194 3.991794 0.450000
v 1.978735 3.985278 0.478868
v 1.978735 3.985278 0.478868
v 1.978735 3.985278 0.478868
v 1.949839 3.991640 0.485355
v 1.949839 3.991640 0.485355
v 1.985348 3.956439 0.485355
v 1.985348 3.956439 0.485355
v 2.008283 2.056521 0.450000
v 1.958284 2.056303 0.500000
v 1.958502 2.006304 0.450000
v 1.993639 2.056458 0.485355
v 1.993639 2.056458 0.485355
v 1.987277 2.027562 0.478868
v 1.987277 2.027562 0.478868
v 1.987277 2.027562 0.478868
v 1.958438 2.020948 0.485355
v 1.958438 2.020948 0.485355
v 1.993793 2.021102 0.450000
v 1.993793 2.021102 0.450000
v 1.050002 3.952358 -0.500000
v 1.000003 3.952140 -0.450000
v 1.049784 4.002357 -0.450000
v 1.014647 3.952204 -0.485355
v 1.014647 3.952204 -0.485355
v 1.021009 3.981099 -0.478868
v 1.021009 3.981099 -0.478868
v 1.021009 3.981099 -0.478868
v 1.014493 3.987559 -0.450000
v 1.014493 3.987559 -0.450000
v 1.049848 3.987713 -0.485355
v 1.049848 3.987713 -0.485355
v 1.008293 2.052158 -0.450000
v 1.058292 2.052376 -0.500000
v 1.058511 2.002377 -0.450000
v 1.022937 2.052222 -0.485355
v 1.022937 2.052222 -0.485355
v 1.029551 2.023383 -0.478868
v 1.029551 2.023383 -0.478868
v 1.029551 2.023383 -0.478868
v 1.058447 2.017021 -0.485355
v 1.058447 2.017021 -0.485355
v 1.023092 2.016867 -0.450000
v 1.023092 2.016867 -0.450000
v 1.000003 3.952140 0.450000
v 1.050002 3.952358 0.500000
v 1.049784 4.002357 0.450000
v 1.014647 3.952204 0.485355
v 1.014647 3.952204 0.485355
v 1.021009 3.981099 0.478868
v 1.021009 3.981099 0.478868
v 1.021009 3.981099 0.478868
v 1.049848 3.987713 0.485355
v 1.049848 3.987713 0.485355
v 1.014493 3.987559 0.450000
v 1.014493 3.987559 0.450000
v 1.058511 2.002377 0.450000
v 1.058292 2.052376 0.500000
v 1.008293 2.052158 0.450000
v 1.058447 2.017021 0.485355
v 1.058447 2.017021 0.485355
v 1.029551 2.023383 0.478868
v 1.029551 2.023383 0.478868
v 1.029551 2.023383 0.478868
v 1.022937 2.052222 0.485355
v 1.022937 2.052222 0.485355
v 1.023092 2.016867 0.450000
v 1.023092 2.016867 0.450000
vn 0.1786 0.1802 -0.9673
vn 0.1696 0.6973 -0.6965
vn 0.5749 0.5799 -0.5773
vn 0.6957 0.1756 -0.6965
vn 0.1752 0.9681 -0.1794
vn 0.6935 0.6995 -0.1726
vn 0.1695 0.6973 -0.6965
vn 0.9665 0.1836 -0.1794
vn 0.1836 -0.9665 -0.1794
vn 0.1756 -0.6957 -0.6965
vn 0.5799 -0.5749 -0.5773
vn 0.6995 -0.6935 -0.1726
vn 0.1802 -0.1786 -0.9673
vn 0.6973 -0.1696 -0.6965
vn 0.5799 -0.5748 -0.5773
vn 0.9681 -0.1752 -0.1794
vn 0.6973 -0.1695 -0.6965
vn 0.9665 0.1836 0.1794
vn 0.6934 0.6995 0.1726
vn 0.5749 0.5799 0.5773
vn 0.6957 0.1756 0.6965
vn 0.1752 0.9681 0.1794
vn 0.1696 0.6972 0.6965
vn 0.1786 0.1802 0.9673
vn 0.1695 0.6972 0.6965
vn 0.9681 -0.1752 0.1794
vn 0.6972 -0.1696 0.6965
vn 0.5799 -0.5749 0.5773
vn 0.6995 -0.6934 0.1726
vn 0.1802 -0.1786 0.9673
vn 0.1756 -0.6957 0.6965
vn 0.5799 -0.5748 0.5773
vn 0.6972 -0.1695 0.6965
vn 0.1836 -0.9665 0.1794
vn 0.1756 -0.6958 0.6965
vn -0.1802 0.1786 -0.9673
vn -0.6973 0.1696 -0.6965
vn -0.5799 0.5748 -0.5773
vn -0.1756 0.6957 -0.6965
vn -0.9681 0.1752 -0.1794
vn -0.6995 0.6935 -0.1726
vn -0.5799 0.5749 -0.5773
vn -0.6973 0.1695 -0.6965
vn -0.1836 0.9665 -0.1794
vn -0.9665 -0.1836 -0.1794
vn -0.6957 -0.1756 -0.6965
vn -0.5749 -0.5799 -0.5773
vn -0.6935 -0.6995 -0.1726
vn -0.1786 -0.1802 -0.9673
vn -0.1696 -0.6973 -0.6965
vn -0.1752 -0.9681 -0.1794
vn -0.1695 -0.6973 -0.6965
vn -0.9681 0.1752 0.1794
vn -0.6972 0.1696 0.6965
vn -0.5799 0.5749 0.5773
vn -0.6995 0.6934 0.1726
vn -0.1802 0.1786 0.9673
vn -0.1756 0.6957 0.6965
vn -0.5799 0.5748 0.5773
vn -0.6972 0.1695 0.6965
vn -0.1836 0.9665 0.1794
vn -0.1756 0.6958 0.6965
vn -0.1752 -0.9681 0.1794
vn -0.1696 -0.6972 0.6965
vn -0.5749 -0.5799 0.5773
vn -0.6934 -0.6995 0.1726
vn -0.1786 -0.1802 0.9673
vn -0.6957 -0.1756 0.6965
vn -0.1695 -0.6972 0.6965
vn -0.9665 -0.1836 0.1794
vt 0.759106 0.367081
vt 0.759106 0.372490
vt 0.756075 0.372490
vt 0.753855 0.367081
vt 0.628784 0.480401
vt 0.634196 0.480401
vt 0.634196 0.483528
vt 0.628784 0.485817
vt 0.742110 0.367078
vt 0.747526 0.367078
vt 0.747526 0.370304
vt 0.742110 0.372666
vt 0.628706 0.040979
vt 0.628706 0.035557
vt 0.631830 0.035557
vt 0.634117 0.040979
vt 0.759106 0.161541
vt 0.753855 0.161541
vt 0.753855 0.158418
vt 0.759106 0.156132
vt 0.742110 0.154725
vt 0.742110 0.149137
vt 0.745237 0.149137
vt 0.747526 0.154725
vt 0.644632 0.367078
vt 0.644632 0.372666
vt 0.641505 0.372666
vt 0.639216 0.367078
vt 0.628784 0.382917
vt 0.628784 0.377502
vt 0.631909 0.377502
vt 0.634196 0.382917
vt 0.628540 0.366781
vt 0.633932 0.366781
vt 0.633932 0.370002
vt 0.628540 0.372359
vt 0.644631 0.154725
vt 0.639216 0.154725
vt 0.639216 0.151499
vt 0.644632 0.149137
vt 0.628540 0.154828
vt 0.628540 0.149250
vt 0.631653 0.149250
vt 0.633932 0.154828
vt 0.628706 0.138585
vt 0.634117 0.138585
vt 0.634117 0.141715
vt 0.628706 0.144007
vt 0.853623 0.367081
vt 0.858874 0.367081
vt 0.858874 0.370204
vt 0.853623 0.372490
vt 0.871245 0.366901
vt 0.871245 0.372486
vt 0.868119 0.372486
vt 0.865831 0.366901
vt 0.531362 0.480401
vt 0.531362 0.485817
vt 0.528237 0.485817
vt 0.525950 0.480401
vt 0.871245 0.154656
vt 0.865831 0.154656
vt 0.865831 0.151431
vt 0.871245 0.149070
vt 0.853623 0.161541
vt 0.853623 0.156132
vt 0.856654 0.156132
vt 0.858874 0.161541
vt 0.531305 0.040979
vt 0.525894 0.040979
vt 0.525894 0.037848
vt 0.531305 0.035557
vt 0.968708 0.366901
vt 0.974123 0.366901
vt 0.974123 0.370126
vt 0.968708 0.372486
vt 0.531477 0.366781
vt 0.531477 0.372359
vt 0.528364 0.372359
vt 0.526085 0.366781
vt 0.531362 0.382917
vt 0.525950 0.382917
vt 0.525950 0.379791
vt 0.531362 0.377502
vt 0.531305 0.138585
vt 0.531305 0.144007
vt 0.528181 0.144007
vt 0.525894 0.138585
vt 0.531477 0.154828
vt 0.526085 0.154828
vt 0.526085 0.151608
vt 0.531477 0.149250
vt 0.968708 0.154656
vt 0.968708 0.149070
vt 0.971834 0.149070
vt 0.974123 0.154656
s 1
usemtl Material.002
f 1/1/1 5/2/2 8/3/3
f 1/1/1 8/3/3 12/4/4
f 2/5/5 9/6/6 6/7/3
f 2/5/5 6/7/3 4/8/7
f 3/9/8 11/10/4 7/11/3
f 3/9/8 7/11/3 10/12/6
f 13/13/9 16/14/10 18/15/11
f 13/13/9 18/15/11 23/16/12
f 14/17/13 22/18/14 20/19/15
f 14/17/13 20/19/15 17/20/10
f 15/21/16 24/22/12 19/23/11
f 15/21/16 19/23/11 21/24/17
f 25/25/18 29/26/19 32/27/20
f 25/25/18 32/27/20 36/28/21
f 26/29/22 34/30/23 30/31/20
f 26/29/22 30/31/20 28/32/19
f 27/33/24 35/34/21 31/35/20
f 27/33/24 31/35/20 33/36/25
f 37/37/26 41/38/27 44/39/28
f 37/37/26 44/39/28 48/40/29
f 38/41/30 45/42/31 42/43/32
f 38/41/30 42/43/32 40/44/33
f 39/45/34 47/46/29 43/47/28
f 39/45/34 43/47/28 46/48/35
f 49/49/36 52/50/37 55/51/38
f 49/49/36 55/51/38 60/52/39
f 50/53/40 58/54/41 56/55/42
f 50/53/40 56/55/42 53/56/43
f 51/57/44 59/58/39 54/59/42
f 51/57/44 54/59/42 57/60/41
f 61/61/45 65/62/46 68/63/47
f 61/61/45 68/63/47 72/64/48
f 62/65/49 70/66/50 67/67/47
f 62/65/49 67/67/47 64/68/46
f 63/69/51 71/70/48 66/71/47
f 63/69/51 66/71/47 69/72/52
f 73/73/53 77/74/54 80/75/55
f 73/73/53 80/75/55 84/76/56
f 74/77/57 82/78/58 79/79/59
f 74/77/57 79/79/59 76/80/60
f 75/81/61 83/82/56 78/83/55
f 75/81/61 78/83/55 81/84/62
f 85/85/63 88/86/64 91/87/65
f 85/85/63 91/87/65 95/88/66
f 86/89/67 93/90/68 90/91/65
f 86/89/67 90/91/65 89/92/69
f 87/93/70 96/94/66 92/95/65
f 87/93/70 92/95/65 94/96/68
f 63/69/51 85/85/63 95/88/66
f 63/69/51 95/88/66 71/70/48
f 72/64/48 96/94/66 87/93/70
f 72/64/48 87/93/70 61/61/45
f 13/13/9 63/69/51 69/72/52
f 13/13/9 69/72/52 16/14/10
f 17/20/10 70/66/50 62/65/49
f 17/20/10 62/65/49 14/17/13
f 3/9/8 15/21/16 21/24/17
f 3/9/8 21/24/17 11/10/4
f 12/4/4 22/18/14 14/17/13
f 12/4/4 14/17/13 1/1/1
f 86/89/67 74/77/57 76/80/60
f 86/89/67 76/80/60 93/90/68
f 94/96/68 77/74/54 73/73/53
f 94/96/68 73/73/53 87/93/70
f 27/33/24 38/41/30 40/44/33
f 27/33/24 40/44/33 35/34/21
f 36/28/21 41/38/27 37/37/26
f 36/28/21 37/37/26 25/25/18
f 49/49/36 62/65/49 64/68/46
f 49/49/36 64/68/46 52/50/37
f 53/56/43 65/62/46 61/61/45
f 53/56/43 61/61/45 50/53/40
f 26/29/22 75/81/61 81/84/62
f 26/29/22 81/84/62 34/30/23
f 33/36/25 82/78/58 74/77/57
f 33/36/25 74/77/57 27/33/24
f 2/5/5 26/29/22 28/32/19
f 2/5/5 28/32/19 9/6/6
f 10/12/6 29/26/19 25/25/18
f 10/12/6 25/25/18 3/9/8
f 85/85/63 39/45/34 46/48/35
f 85/85/63 46/48/35 88/86/64
f 89/92/69 45/42/31 38/41/30
f 89/92/69 38/41/30 86/89/67
f 75/81/61 51/57/44 57/60/41
f 75/81/61 57/60/41 83/82/56
f 84/76/56 58/54/41 50/53/40
f 84/76/56 50/53/40 73/73/53
f 51/57/44 2/5/5 4/8/7
f 51/57/44 4/8/7 59/58/39
f 60/52/39 5/2/2 1/1/1
f 60/52/39 1/1/1 49/49/36
f 39/45/34 13/13/9 23/16/12
f 39/45/34 23/16/12 47/46/29
f 48/40/29 24/22/12 15/21/16
f 48/40/29 15/21/16 37/37/26
f 62/65/49 49/49/36 1/1/1
f 62/65/49 1/1/1 14/17/13
f 15/21/16 3/9/8 25/25/18
f 15/21/16 25/25/18 37/37/26
f 2/5/5 51/57/44 75/81/61
f 2/5/5 75/81/61 26/29/22
f 63/69/51 13/13/9 39/45/34
f 63/69/51 39/45/34 85/85/63
f 38/41/30 27/33/24 74/77/57
f 38/41/30 74/77/57 86/89/67
f 87/93/70 73/73/53 50/53/40
f 87/93/70 50/53/40 61/61/45
