# Blender 5.2.0 LTS
# www.blender.org
mtllib RightLeg.mtl
o LeftLeg.003
v 0.950000 1.950000 -0.500000
v 0.950000 2.000000 -0.450000
v 1.000000 1.950000 -0.450000
v 0.950000 1.985355 -0.485355
v 0.950000 1.985355 -0.485355
v 0.978867 1.978868 -0.478868
v 0.978867 1.978868 -0.478868
v 0.978867 1.978868 -0.478868
v 0.985355 1.985355 -0.450000
v 0.985355 1.985355 -0.450000
v 0.985355 1.950000 -0.485355
v 0.985355 1.950000 -0.485355
v 0.950000 0.000000 -0.450000
v 0.950000 0.050000 -0.500000
v 1.000000 0.050000 -0.450000
v 0.950000 0.014645 -0.485355
v 0.950000 0.014645 -0.485355
v 0.978867 0.021132 -0.478868
v 0.978867 0.021132 -0.478868
v 0.978867 0.021132 -0.478868
v 0.985355 0.050000 -0.485355
v 0.985355 0.050000 -0.485355
v 0.985355 0.014645 -0.450000
v 0.985355 0.014645 -0.450000
v 1.000000 1.950000 0.450000
v 0.950000 2.000000 0.450000
v 0.950000 1.950000 0.500000
v 0.985355 1.985355 0.450000
v 0.985355 1.985355 0.450000
v 0.978867 1.978868 0.478868
v 0.978867 1.978868 0.478868
v 0.978867 1.978868 0.478868
v 0.950000 1.985355 0.485355
v 0.950000 1.985355 0.485355
v 0.985355 1.950000 0.485355
v 0.985355 1.950000 0.485355
v 1.000000 0.050000 0.450000
v 0.950000 0.050000 0.500000
v 0.950000 0.000000 0.450000
v 0.985355 0.050000 0.485355
v 0.985355 0.050000 0.485355
v 0.978867 0.021132 0.478868
v 0.978867 0.021132 0.478868
v 0.978867 0.021132 0.478868
v 0.950000 0.014645 0.485355
v 0.950000 0.014645 0.485355
v 0.985355 0.014645 0.450000
v 0.985355 0.014645 0.450000
v 0.050000 1.950000 -0.500000
v -0.000000 1.950000 -0.450000
v 0.050000 2.000000 -0.450000
v 0.014645 1.950000 -0.485355
v 0.014645 1.950000 -0.485355
v 0.021132 1.978868 -0.478868
v 0.021132 1.978868 -0.478868
v 0.021132 1.978868 -0.478868
v 0.014645 1.985355 -0.450000
v 0.014645 1.985355 -0.450000
v 0.050000 1.985355 -0.485355
v 0.050000 1.985355 -0.485355
v -0.000000 0.050000 -0.450000
v 0.050000 0.050000 -0.500000
v 0.050000 0.000000 -0.450000
v 0.014645 0.050000 -0.485355
v 0.014645 0.050000 -0.485355
v 0.021132 0.021132 -0.478868
v 0.021132 0.021132 -0.478868
v 0.021132 0.021132 -0.478868
v 0.050000 0.014645 -0.485355
v 0.050000 0.014645 -0.485355
v 0.014645 0.014645 -0.450000
v 0.014645 0.014645 -0.450000
v -0.000000 1.950000 0.450000
v 0.050000 1.950000 0.500000
v 0.050000 2.000000 0.450000
v 0.014645 1.950000 0.485355
v 0.014645 1.950000 0.485355
v 0.021132 1.978868 0.478868
v 0.021132 1.978868 0.478868
v 0.021132 1.978868 0.478868
v 0.050000 1.985355 0.485355
v 0.050000 1.985355 0.485355
v 0.014645 1.985355 0.450000
v 0.014645 1.985355 0.450000
v 0.050000 0.000000 0.450000
v 0.050000 0.050000 0.500000
v -0.000000 0.050000 0.450000
v 0.050000 0.014645 0.485355
v 0.050000 0.014645 0.485355
v 0.021132 0.021132 0.478868
v 0.021132 0.021132 0.478868
v 0.021132 0.021132 0.478868
v 0.014645 0.050000 0.485355
v 0.014645 0.050000 0.485355
v 0.014645 0.014645 0.450000
v 0.014645 0.014645 0.450000
vn 0.1794 0.1794 -0.9673
vn 0.1726 0.6965 -0.6965
vn 0.5774 0.5774 -0.5773
vn 0.6965 0.1726 -0.6965
vn 0.1794 0.9673 -0.1794
vn 0.6965 0.6965 -0.1726
vn 0.9673 0.1794 -0.1794
vn 0.1794 -0.9673 -0.1794
vn 0.1726 -0.6965 -0.6965
vn 0.5774 -0.5774 -0.5773
vn 0.6965 -0.6965 -0.1726
vn 0.1794 -0.1794 -0.9673
vn 0.6965 -0.1726 -0.6965
vn 0.9673 -0.1794 -0.1794
vn 0.9673 0.1794 0.1794
vn 0.6965 0.6965 0.1726
vn 0.5774 0.5774 0.5773
vn 0.6965 0.1726 0.6965
vn 0.1794 0.9673 0.1794
vn 0.1726 0.6965 0.6965
vn 0.1794 0.1794 0.9673
vn 0.9673 -0.1794 0.1794
vn 0.6965 -0.1726 0.6965
vn 0.5774 -0.5774 0.5773
vn 0.6965 -0.6965 0.1726
vn 0.1794 -0.1794 0.9673
vn 0.1726 -0.6965 0.6965
vn 0.1794 -0.9673 0.1794
vn -0.1794 0.1794 -0.9673
vn -0.6965 0.1726 -0.6965
vn -0.5774 0.5774 -0.5773
vn -0.1726 0.6965 -0.6965
vn -0.9673 0.1794 -0.1794
vn -0.6965 0.6965 -0.1726
vn -0.1794 0.9673 -0.1794
vn -0.9673 -0.1794 -0.1794
vn -0.6965 -0.1726 -0.6965
vn -0.5774 -0.5774 -0.5773
vn -0.6965 -0.6965 -0.1726
vn -0.1794 -0.1794 -0.9673
vn -0.1726 -0.6965 -0.6965
vn -0.1794 -0.9673 -0.1794
vn -0.9673 0.1794 0.1794
vn -0.6965 0.1726 0.6965
vn -0.5774 0.5774 0.5773
vn -0.6965 0.6965 0.1726
vn -0.1794 0.1794 0.9673
vn -0.1726 0.6965 0.6965
vn -0.1794 0.9673 0.1794
vn -0.1794 -0.9673 0.1794
vn -0.1726 -0.6965 0.6965
vn -0.5774 -0.5774 0.5773
vn -0.6965 -0.6965 0.1726
vn -0.1794 -0.1794 0.9673
vn -0.6965 -0.1726 0.6965
vn -0.9673 -0.1794 0.1794
vt 0.757822 0.366771
vt 0.757822 0.372362
vt 0.754692 0.372362
vt 0.752401 0.366771
vt 0.628797 0.480400
vt 0.634220 0.480400
vt 0.634220 0.483531
vt 0.628797 0.485823
vt 0.742218 0.366900
vt 0.747638 0.366900
vt 0.747638 0.370126
vt 0.742218 0.372488
vt 0.628833 0.041062
vt 0.628833 0.035642
vt 0.631965 0.035642
vt 0.634257 0.041062
vt 0.757822 0.154318
vt 0.752401 0.154318
vt 0.752401 0.151090
vt 0.757822 0.148727
vt 0.742218 0.154559
vt 0.742218 0.148972
vt 0.745347 0.148972
vt 0.747638 0.154559
vt 0.644648 0.366900
vt 0.644648 0.372488
vt 0.641518 0.372488
vt 0.639227 0.366900
vt 0.628797 0.382788
vt 0.628797 0.377365
vt 0.631928 0.377365
vt 0.634220 0.382788
vt 0.628899 0.366861
vt 0.634313 0.366861
vt 0.634313 0.370087
vt 0.628899 0.372448
vt 0.644648 0.154559
vt 0.639227 0.154559
vt 0.639227 0.151333
vt 0.644648 0.148972
vt 0.628899 0.154574
vt 0.628899 0.148988
vt 0.632025 0.148988
vt 0.634313 0.154574
vt 0.628833 0.138622
vt 0.634257 0.138622
vt 0.634257 0.141751
vt 0.628833 0.144042
vt 0.855390 0.366771
vt 0.860810 0.366771
vt 0.860810 0.369999
vt 0.855390 0.372362
vt 0.871230 0.366972
vt 0.871230 0.372566
vt 0.868103 0.372566
vt 0.865815 0.366972
vt 0.531194 0.480400
vt 0.531194 0.485823
vt 0.528063 0.485823
vt 0.525771 0.480400
vt 0.871230 0.154424
vt 0.865815 0.154424
vt 0.865815 0.151194
vt 0.871230 0.148830
vt 0.855390 0.154318
vt 0.855390 0.148727
vt 0.858519 0.148727
vt 0.860810 0.154318
vt 0.531198 0.041062
vt 0.525774 0.041062
vt 0.525774 0.037933
vt 0.531198 0.035642
vt 0.968706 0.366972
vt 0.974121 0.366972
vt 0.974121 0.370202
vt 0.968706 0.372566
vt 0.531446 0.366861
vt 0.531446 0.372448
vt 0.528320 0.372448
vt 0.526031 0.366861
vt 0.531194 0.382788
vt 0.525771 0.382788
vt 0.525771 0.379657
vt 0.531194 0.377365
vt 0.531198 0.138622
vt 0.531198 0.144042
vt 0.528066 0.144042
vt 0.525774 0.138622
vt 0.531446 0.154574
vt 0.526031 0.154574
vt 0.526031 0.151349
vt 0.531446 0.148988
vt 0.968706 0.154424
vt 0.968706 0.148830
vt 0.971832 0.148830
vt 0.974121 0.154424
s 1
usemtl Material.002
f 1/1/1 5/2/2 8/3/3
f 1/1/1 8/3/3 12/4/4
f 2/5/5 9/6/6 6/7/3
f 2/5/5 6/7/3 4/8/2
f 3/9/7 11/10/4 7/11/3
f 3/9/7 7/11/3 10/12/6
f 13/13/8 16/14/9 18/15/10
f 13/13/8 18/15/10 23/16/11
f 14/17/12 22/18/13 20/19/10
f 14/17/12 20/19/10 17/20/9
f 15/21/14 24/22/11 19/23/10
f 15/21/14 19/23/10 21/24/13
f 25/25/15 29/26/16 32/27/17
f 25/25/15 32/27/17 36/28/18
f 26/29/19 33/30/20 30/31/17
f 26/29/19 30/31/17 28/32/16
f 27/33/21 35/34/18 31/35/17
f 27/33/21 31/35/17 34/36/20
f 37/37/22 41/38/23 44/39/24
f 37/37/22 44/39/24 48/40/25
f 38/41/26 46/42/27 42/43/24
f 38/41/26 42/43/24 40/44/23
f 39/45/28 47/46/25 43/47/24
f 39/45/28 43/47/24 45/48/27
f 49/49/29 52/50/30 55/51/31
f 49/49/29 55/51/31 60/52/32
f 50/53/33 58/54/34 56/55/31
f 50/53/33 56/55/31 53/56/30
f 51/57/35 59/58/32 54/59/31
f 51/57/35 54/59/31 57/60/34
f 61/61/36 65/62/37 68/63/38
f 61/61/36 68/63/38 72/64/39
f 62/65/40 70/66/41 67/67/38
f 62/65/40 67/67/38 64/68/37
f 63/69/42 71/70/39 66/71/38
f 63/69/42 66/71/38 69/72/41
f 73/73/43 77/74/44 80/75/45
f 73/73/43 80/75/45 84/76/46
f 74/77/47 82/78/48 79/79/45
f 74/77/47 79/79/45 76/80/44
f 75/81/49 83/82/46 78/83/45
f 75/81/49 78/83/45 81/84/48
f 85/85/50 88/86/51 91/87/52
f 85/85/50 91/87/52 95/88/53
f 86/89/54 93/90/55 90/91/52
f 86/89/54 90/91/52 89/92/51
f 87/93/56 96/94/53 92/95/52
f 87/93/56 92/95/52 94/96/55
f 63/69/42 85/85/50 95/88/53
f 63/69/42 95/88/53 71/70/39
f 72/64/39 96/94/53 87/93/56
f 72/64/39 87/93/56 61/61/36
f 13/13/8 63/69/42 69/72/41
f 13/13/8 69/72/41 16/14/9
f 17/20/9 70/66/41 62/65/40
f 17/20/9 62/65/40 14/17/12
f 3/9/7 15/21/14 21/24/13
f 3/9/7 21/24/13 11/10/4
f 12/4/4 22/18/13 14/17/12
f 12/4/4 14/17/12 1/1/1
f 86/89/54 74/77/47 76/80/44
f 86/89/54 76/80/44 93/90/55
f 94/96/55 77/74/44 73/73/43
f 94/96/55 73/73/43 87/93/56
f 27/33/21 38/41/26 40/44/23
f 27/33/21 40/44/23 35/34/18
f 36/28/18 41/38/23 37/37/22
f 36/28/18 37/37/22 25/25/15
f 49/49/29 62/65/40 64/68/37
f 49/49/29 64/68/37 52/50/30
f 53/56/30 65/62/37 61/61/36
f 53/56/30 61/61/36 50/53/33
f 26/29/19 75/81/49 81/84/48
f 26/29/19 81/84/48 33/30/20
f 34/36/20 82/78/48 74/77/47
f 34/36/20 74/77/47 27/33/21
f 2/5/5 26/29/19 28/32/16
f 2/5/5 28/32/16 9/6/6
f 10/12/6 29/26/16 25/25/15
f 10/12/6 25/25/15 3/9/7
f 85/85/50 39/45/28 45/48/27
f 85/85/50 45/48/27 88/86/51
f 89/92/51 46/42/27 38/41/26
f 89/92/51 38/41/26 86/89/54
f 75/81/49 51/57/35 57/60/34
f 75/81/49 57/60/34 83/82/46
f 84/76/46 58/54/34 50/53/33
f 84/76/46 50/53/33 73/73/43
f 51/57/35 2/5/5 4/8/2
f 51/57/35 4/8/2 59/58/32
f 60/52/32 5/2/2 1/1/1
f 60/52/32 1/1/1 49/49/29
f 39/45/28 13/13/8 23/16/11
f 39/45/28 23/16/11 47/46/25
f 48/40/25 24/22/11 15/21/14
f 48/40/25 15/21/14 37/37/22
f 62/65/40 49/49/29 1/1/1
f 62/65/40 1/1/1 14/17/12
f 15/21/14 3/9/7 25/25/15
f 15/21/14 25/25/15 37/37/22
f 2/5/5 51/57/35 75/81/49
f 2/5/5 75/81/49 26/29/19
f 63/69/42 13/13/8 39/45/28
f 63/69/42 39/45/28 85/85/50
f 38/41/26 27/33/21 74/77/47
f 38/41/26 74/77/47 86/89/54
f 87/93/56 73/73/43 50/53/33
f 87/93/56 50/53/33 61/61/36
