# Blender 5.2.0 LTS
# www.blender.org
mtllib Torso.mtl
o Torso.003
v 0.950000 3.950000 -0.500000
v 0.950000 4.000000 -0.450000
v 1.000000 3.950000 -0.450000
v 0.950000 3.985355 -0.485355
v 0.950000 3.985355 -0.485355
v 0.978868 3.978867 -0.478868
v 0.978868 3.978867 -0.478868
v 0.978868 3.978867 -0.478868
v 0.985355 3.985355 -0.450000
v 0.985355 3.985355 -0.450000
v 0.985355 3.950000 -0.485355
v 0.985355 3.950000 -0.485355
v 0.950000 2.000000 -0.450000
v 0.950000 2.049999 -0.500000
v 1.000000 2.049999 -0.450000
v 0.950000 2.014644 -0.485355
v 0.950000 2.014644 -0.485355
v 0.978868 2.021132 -0.478868
v 0.978868 2.021132 -0.478868
v 0.978868 2.021132 -0.478868
v 0.985355 2.049999 -0.485355
v 0.985355 2.049999 -0.485355
v 0.985355 2.014644 -0.450000
v 0.985355 2.014644 -0.450000
v 1.000000 3.950000 0.450000
v 0.950000 4.000000 0.450000
v 0.950000 3.950000 0.500000
v 0.985355 3.985355 0.450000
v 0.985355 3.985355 0.450000
v 0.978868 3.978867 0.478868
v 0.978868 3.978867 0.478868
v 0.978868 3.978867 0.478868
v 0.950000 3.985355 0.485355
v 0.950000 3.985355 0.485355
v 0.985355 3.950000 0.485355
v 0.985355 3.950000 0.485355
v 1.000000 2.049999 0.450000
v 0.950000 2.049999 0.500000
v 0.950000 2.000000 0.450000
v 0.985355 2.049999 0.485355
v 0.985355 2.049999 0.485355
v 0.978868 2.021132 0.478868
v 0.978868 2.021132 0.478868
v 0.978868 2.021132 0.478868
v 0.950000 2.014644 0.485355
v 0.950000 2.014644 0.485355
v 0.985355 2.014644 0.450000
v 0.985355 2.014644 0.450000
v -0.950000 3.950000 -0.500000
v -1.000000 3.950000 -0.450000
v -0.950000 4.000000 -0.450000
v -0.985355 3.950000 -0.485355
v -0.985355 3.950000 -0.485355
v -0.978868 3.978867 -0.478868
v -0.978868 3.978867 -0.478868
v -0.978868 3.978867 -0.478868
v -0.985355 3.985355 -0.450000
v -0.985355 3.985355 -0.450000
v -0.950000 3.985355 -0.485355
v -0.950000 3.985355 -0.485355
v -1.000000 2.049999 -0.450000
v -0.950000 2.049999 -0.500000
v -0.950000 2.000000 -0.450000
v -0.985355 2.049999 -0.485355
v -0.985355 2.049999 -0.485355
v -0.978868 2.021132 -0.478868
v -0.978868 2.021132 -0.478868
v -0.978868 2.021132 -0.478868
v -0.950000 2.014644 -0.485355
v -0.950000 2.014644 -0.485355
v -0.985355 2.014644 -0.450000
v -0.985355 2.014644 -0.450000
v -1.000000 3.950000 0.450000
v -0.950000 3.950000 0.500000
v -0.950000 4.000000 0.450000
v -0.985355 3.950000 0.485355
v -0.985355 3.950000 0.485355
v -0.978868 3.978867 0.478868
v -0.978868 3.978867 0.478868
v -0.978868 3.978867 0.478868
v -0.950000 3.985355 0.485355
v -0.950000 3.985355 0.485355
v -0.985355 3.985355 0.450000
v -0.985355 3.985355 0.450000
v -0.950000 2.000000 0.450000
v -0.950000 2.049999 0.500000
v -1.000000 2.049999 0.450000
v -0.950000 2.014644 0.485355
v -0.950000 2.014644 0.485355
v -0.978868 2.021132 0.478868
v -0.978868 2.021132 0.478868
v -0.978868 2.021132 0.478868
v -0.985355 2.049999 0.485355
v -0.985355 2.049999 0.485355
v -0.985355 2.014644 0.450000
v -0.985355 2.014644 0.450000
vn 0.1794 0.1794 -0.9673
vn 0.1726 0.6965 -0.6965
vn 0.5774 0.5774 -0.5773
vn 0.6965 0.1726 -0.6965
vn 0.1794 0.9673 -0.1794
vn 0.6965 0.6965 -0.1726
vn 0.9673 0.1794 -0.1794
vn 0.1794 -0.9673 -0.1794
vn 0.1726 -0.6965 -0.6965
vn 0.5774 -0.5774 -0.5773
vn 0.6965 -0.6965 -0.1726
vn 0.1794 -0.1794 -0.9673
vn 0.6965 -0.1726 -0.6965
vn 0.9673 -0.1794 -0.1794
vn 0.9673 0.1794 0.1794
vn 0.6965 0.6965 0.1726
vn 0.5774 0.5774 0.5773
vn 0.6965 0.1726 0.6965
vn 0.1794 0.9673 0.1794
vn 0.1726 0.6965 0.6965
vn 0.1794 0.1794 0.9673
vn 0.9673 -0.1794 0.1794
vn 0.6965 -0.1726 0.6965
vn 0.5774 -0.5774 0.5773
vn 0.6965 -0.6965 0.1726
vn 0.1794 -0.1794 0.9673
vn 0.1726 -0.6965 0.6965
vn 0.1794 -0.9673 0.1794
vn -0.1794 0.1794 -0.9673
vn -0.6965 0.1726 -0.6965
vn -0.5774 0.5774 -0.5773
vn -0.1726 0.6965 -0.6965
vn -0.9673 0.1794 -0.1794
vn -0.6965 0.6965 -0.1726
vn -0.1794 0.9673 -0.1794
vn -0.9673 -0.1794 -0.1794
vn -0.6965 -0.1726 -0.6965
vn -0.5774 -0.5774 -0.5773
vn -0.6965 -0.6965 -0.1726
vn -0.1794 -0.1794 -0.9673
vn -0.1726 -0.6965 -0.6965
vn -0.1794 -0.9673 -0.1794
vn -0.9673 0.1794 0.1794
vn -0.6965 0.1726 0.6965
vn -0.5774 0.5774 0.5773
vn -0.6965 0.6965 0.1726
vn -0.1794 0.1794 0.9673
vn -0.1726 0.6965 0.6965
vn -0.1794 0.9673 0.1794
vn -0.1794 -0.9673 0.1794
vn -0.1726 -0.6965 0.6965
vn -0.5774 -0.5774 0.5773
vn -0.6965 -0.6965 0.1726
vn -0.1794 -0.1794 0.9673
vn -0.6965 -0.1726 0.6965
vn -0.9673 -0.1794 0.1794
vt 0.648479 0.851419
vt 0.648479 0.857015
vt 0.645337 0.857015
vt 0.643036 0.851419
vt 0.519446 0.968404
vt 0.524892 0.968404
vt 0.524892 0.971647
vt 0.519446 0.974020
vt 0.632889 0.851413
vt 0.638320 0.851413
vt 0.638320 0.854642
vt 0.632889 0.857006
vt 0.519516 0.521663
vt 0.519516 0.516039
vt 0.522660 0.516039
vt 0.524962 0.521663
vt 0.648479 0.638752
vt 0.643036 0.638752
vt 0.643036 0.635521
vt 0.648479 0.633156
vt 0.632889 0.638899
vt 0.632889 0.633306
vt 0.636025 0.633306
vt 0.638320 0.638899
vt 0.535144 0.851413
vt 0.535144 0.857006
vt 0.532009 0.857006
vt 0.529714 0.851413
vt 0.519446 0.867322
vt 0.519446 0.861706
vt 0.522591 0.861706
vt 0.524892 0.867322
vt 0.519558 0.851402
vt 0.525010 0.851402
vt 0.525010 0.854634
vt 0.519558 0.857000
vt 0.535144 0.638899
vt 0.529714 0.638899
vt 0.529714 0.635670
vt 0.535144 0.633306
vt 0.519557 0.638688
vt 0.519558 0.633090
vt 0.522705 0.633090
vt 0.525010 0.638688
vt 0.519516 0.622896
vt 0.524962 0.622896
vt 0.524962 0.626143
vt 0.519516 0.628520
vt 0.855328 0.851419
vt 0.860771 0.851419
vt 0.860771 0.854650
vt 0.855328 0.857015
vt 0.199457 0.851475
vt 0.199457 0.857067
vt 0.196334 0.857067
vt 0.194048 0.851475
vt 0.312505 0.968404
vt 0.312505 0.974020
vt 0.309361 0.974020
vt 0.307059 0.968404
vt 0.199457 0.638999
vt 0.194048 0.638999
vt 0.194048 0.635771
vt 0.199457 0.633408
vt 0.855328 0.638752
vt 0.855328 0.633156
vt 0.858471 0.633156
vt 0.860771 0.638752
vt 0.312582 0.521663
vt 0.307137 0.521663
vt 0.307137 0.518416
vt 0.312582 0.516039
vt 0.296810 0.851475
vt 0.302219 0.851475
vt 0.302219 0.854704
vt 0.296810 0.857067
vt 0.312381 0.851402
vt 0.312381 0.857000
vt 0.309233 0.857000
vt 0.306929 0.851402
vt 0.312505 0.867322
vt 0.307059 0.867322
vt 0.307059 0.864080
vt 0.312505 0.861706
vt 0.312582 0.622896
vt 0.312582 0.628520
vt 0.309438 0.628520
vt 0.307137 0.622896
vt 0.312381 0.638688
vt 0.306929 0.638688
vt 0.306929 0.635456
vt 0.312381 0.633090
vt 0.296810 0.638999
vt 0.296810 0.633408
vt 0.299933 0.633408
vt 0.302219 0.638999
s 1
usemtl Material.002
f 1/1/1 5/2/2 8/3/3
f 1/1/1 8/3/3 12/4/4
f 2/5/5 9/6/6 6/7/3
f 2/5/5 6/7/3 4/8/2
f 3/9/7 11/10/4 7/11/3
f 3/9/7 7/11/3 10/12/6
f 13/13/8 16/14/9 18/15/10
f 13/13/8 18/15/10 23/16/11
f 14/17/12 22/18/13 20/19/10
f 14/17/12 20/19/10 17/20/9
f 15/21/14 24/22/11 19/23/10
f 15/21/14 19/23/10 21/24/13
f 25/25/15 29/26/16 32/27/17
f 25/25/15 32/27/17 36/28/18
f 26/29/19 33/30/20 30/31/17
f 26/29/19 30/31/17 28/32/16
f 27/33/21 35/34/18 31/35/17
f 27/33/21 31/35/17 34/36/20
f 37/37/22 41/38/23 44/39/24
f 37/37/22 44/39/24 48/40/25
f 38/41/26 46/42/27 42/43/24
f 38/41/26 42/43/24 40/44/23
f 39/45/28 47/46/25 43/47/24
f 39/45/28 43/47/24 45/48/27
f 49/49/29 53/50/30 56/51/31
f 49/49/29 56/51/31 60/52/32
f 50/53/33 57/54/34 54/55/31
f 50/53/33 54/55/31 52/56/30
f 51/57/35 59/58/32 55/59/31
f 51/57/35 55/59/31 58/60/34
f 61/61/36 64/62/37 66/63/38
f 61/61/36 66/63/38 71/64/39
f 62/65/40 70/66/41 68/67/38
f 62/65/40 68/67/38 65/68/37
f 63/69/42 72/70/39 67/71/38
f 63/69/42 67/71/38 69/72/41
f 73/73/43 76/74/44 78/75/45
f 73/73/43 78/75/45 83/76/46
f 74/77/47 81/78/48 80/79/45
f 74/77/47 80/79/45 77/80/44
f 75/81/49 84/82/46 79/83/45
f 75/81/49 79/83/45 82/84/48
f 85/85/50 89/86/51 92/87/52
f 85/85/50 92/87/52 96/88/53
f 86/89/54 94/90/55 91/91/52
f 86/89/54 91/91/52 88/92/51
f 87/93/56 95/94/53 90/95/52
f 87/93/56 90/95/52 93/96/55
f 63/69/42 85/85/50 96/88/53
f 63/69/42 96/88/53 72/70/39
f 71/64/39 95/94/53 87/93/56
f 71/64/39 87/93/56 61/61/36
f 13/13/8 63/69/42 69/72/41
f 13/13/8 69/72/41 16/14/9
f 17/20/9 70/66/41 62/65/40
f 17/20/9 62/65/40 14/17/12
f 3/9/7 15/21/14 21/24/13
f 3/9/7 21/24/13 11/10/4
f 12/4/4 22/18/13 14/17/12
f 12/4/4 14/17/12 1/1/1
f 86/89/54 74/77/47 77/80/44
f 86/89/54 77/80/44 94/90/55
f 93/96/55 76/74/44 73/73/43
f 93/96/55 73/73/43 87/93/56
f 27/33/21 38/41/26 40/44/23
f 27/33/21 40/44/23 35/34/18
f 36/28/18 41/38/23 37/37/22
f 36/28/18 37/37/22 25/25/15
f 49/49/29 62/65/40 65/68/37
f 49/49/29 65/68/37 53/50/30
f 52/56/30 64/62/37 61/61/36
f 52/56/30 61/61/36 50/53/33
f 26/29/19 75/81/49 82/84/48
f 26/29/19 82/84/48 33/30/20
f 34/36/20 81/78/48 74/77/47
f 34/36/20 74/77/47 27/33/21
f 2/5/5 26/29/19 28/32/16
f 2/5/5 28/32/16 9/6/6
f 10/12/6 29/26/16 25/25/15
f 10/12/6 25/25/15 3/9/7
f 85/85/50 39/45/28 45/48/27
f 85/85/50 45/48/27 89/86/51
f 88/92/51 46/42/27 38/41/26
f 88/92/51 38/41/26 86/89/54
f 75/81/49 51/57/35 58/60/34
f 75/81/49 58/60/34 84/82/46
f 83/76/46 57/54/34 50/53/33
f 83/76/46 50/53/33 73/73/43
f 51/57/35 2/5/5 4/8/2
f 51/57/35 4/8/2 59/58/32
f 60/52/32 5/2/2 1/1/1
f 60/52/32 1/1/1 49/49/29
f 39/45/28 13/13/8 23/16/11
f 39/45/28 23/16/11 47/46/25
f 48/40/25 24/22/11 15/21/14
f 48/40/25 15/21/14 37/37/22
f 62/65/40 49/49/29 1/1/1
f 62/65/40 1/1/1 14/17/12
f 15/21/14 3/9/7 25/25/15
f 15/21/14 25/25/15 37/37/22
f 2/5/5 51/57/35 75/81/49
f 2/5/5 75/81/49 26/29/19
f 63/69/42 13/13/8 39/45/28
f 63/69/42 39/45/28 85/85/50
f 38/41/26 27/33/21 74/77/47
f 38/41/26 74/77/47 86/89/54
f 87/93/56 73/73/43 50/53/33
f 87/93/56 50/53/33 61/61/36
